<svg xmlns="http://www.w3.org/2000/svg" viewBox="0 0 500 174.4" style="enable-background:new 0 0 500 174.4" xml:space="preserve"><path d="M0 0h500v174.4H0V0z" style="fill:#121212"/><path d="M68.9 79.4c.1-1.3.5-2.5 1.2-3.5s1.8-1.7 3.2-2c2.2-.4 3.9 0 5.1 1.3 1.2 1.2 2 3 2.6 5.1l1.1 4.4c.4 1.2.7 2.3 1 3.5.3 1.2.5 2 .6 2.6-.2.8-.5 1.5-.8 2.2-.4.7-.8 1.4-1.3 2-.5.6-1.1 1.1-1.8 1.4-.7.4-1.5.6-2.3.6-1.1 0-2.1-.3-3-1-.9-.6-1.6-1.5-2-2.6l-.9-3c-.4-1.1-.7-2-1-2.9-.1-.6-.3-1.1-.5-1.6s-.3-1-.5-1.6c-.6-1.6-.8-3.3-.7-4.9zm4.9 18.1c1.2.8 2.5 1.1 4 1.1s2.9-.4 4.2-1.3c1.3-.9 2.2-2.2 2.8-3.8l2.1-7.5c.5-1.7 1-3.6 1.6-5.7 1.2-4.2 3.2-6.3 6-6.3s4.8 2.1 6 6.3l3.9 13.7 3.5-13.6c.6-2.2 1.4-3.9 2.6-5.1 1.2-1.2 2.9-1.7 5.1-1.3 2.1.5 3.4 1.4 3.8 2.7.5 1.3.7 2.5.8 3.7.1 1.1-.2 2.5-.8 4l-.9 2.8c-.3.9-.6 1.8-.9 2.9s-.7 2.2-1.1 3.4c-.4 1.3-.8 2.5-1.2 3.7s-.7 2.3-1 3.3l-1.1 3.3c-1.3 4.1-4 6.1-7.9 6.1-2 0-3.6-.4-4.7-1.3-1.1-.8-2-2-2.6-3.5-.6-1.5-1.2-3.2-1.6-5.2-.5-2-1.1-4.1-1.8-6.4-.7 2.3-1.3 4.4-1.7 6.4-.4 2-1 3.7-1.6 5.2-.7 1.5-1.5 2.6-2.7 3.5-1.1.8-2.7 1.3-4.7 1.3-3.9 0-6.5-2-7.8-6.1l-.9-2.7c-.3-.7-.5-1.4-.7-2.1-.5-.8-.6-1.2-.7-1.5zm52.7-18.9c1.4-1.7 3.3-3 5.6-4.1 2.3-1.1 5.1-1.6 8.3-1.6 2.5 0 4.8.4 6.9 1.2 2.1.8 4 1.9 5.5 3.3 1.6 1.4 2.8 3.1 3.6 5.1.9 2 1.3 4.2 1.3 6.5 0 5.2-2.2 7.8-6.7 7.8h-16.5c0 .8.3 1.4.8 1.9s1.2.9 1.9 1.2c.8.3 1.6.5 2.4.6s1.5.2 2.1.2c1.2 0 2.3-.1 3.5-.3 1.2-.2 2.2-.4 3.2-.6.7-.2 1.2-.3 1.7-.3.5-.1.9-.1 1.3-.1 1.4 0 2.5.4 3.2 1.3.7.9 1 2 1 3.3 0 1.4-.6 2.6-1.7 3.5-1.1.9-2.5 1.6-4 2.1-1.6.5-3.1.8-4.8 1-1.6.2-3 .3-4 .3-2.8 0-5.6-.5-8.3-1.4-2.7-.9-4.8-2.4-6.5-4.5-1.3-1.7-2-3.6-2.2-5.7s.4-4.1 1.6-5.9c1-1.6 2.4-2.8 4.1-3.8 1.8-.9 3.8-1.4 6.1-1.4h10.3c0-1.4-.5-2.6-1.4-3.6s-2.4-1.6-4.4-1.7c-1.8-.1-3.7.1-5.8.7-2 .6-3.9 1.5-5.6 2.7-1.7 1.2-3.1 2.8-4.3 4.7-1.2 1.9-1.9 4.1-2.1 6.7-.9-3.2-1-6.6-.4-10 .6-3.3 2.1-6.3 4.3-9.1zm35.8-13.8c0-2.1.5-3.9 1.4-5.4.9-1.4 2.6-2.2 5-2.2 2.3 0 4 .7 4.9 2.2.9 1.5 1.4 3.3 1.4 5.3v32.6c-1.8-.3-3.4-.7-4.9-1.4-1.5-.7-2.9-1.5-4-2.6s-2.1-2.4-2.7-3.8c-.7-1.5-1-3.1-1-5l-.1-19.7zm0 31.9v-6.9c.5 2.4 1.5 4.3 2.9 5.6 1.4 1.3 2.9 2.3 4.4 3 1.5.7 2.9 1.1 4.2 1.2 1.3.1 2.1.2 2.5.2 1.2 0 2 .5 2.5 1.4s.8 1.9.8 3.1c0 2-.8 3.4-2.3 4.4-1.6 1-3.3 1.5-5.3 1.5-1.9 0-3.5-.3-4.8-1-1.2-.7-2.2-1.6-3-2.8-.7-1.2-1.2-2.6-1.5-4.3-.2-1.7-.4-3.5-.4-5.4zm44.4-9.8c1.4.2 2.7.6 3.9 1.3 1.2.7 2.2 1.5 3.1 2.5.9 1 1.6 2.1 2.1 3.4.5 1.3.8 2.7.8 4.1v4.2c0 1.5-.2 2.7-.6 3.7-.4 1-.9 1.7-1.5 2.3s-1.3 1-2.1 1.2-1.5.3-2.3.3c-1.5 0-2.8-.3-3.9-.9-1.1-.6-1.9-1.7-2.3-3.1v-.2c-1.8 3.4-5.1 5-10 5-3 0-5.6-.7-7.7-2.2l-1.1-1c-.9-.9-1.7-2.1-2.3-3.5-.6-1.4-.9-2.9-1-4.5s.1-3.1.7-4.7c.5-1.6 1.5-3 2.9-4.2 1.4-1.3 3.3-2.3 5.7-3.1 2.4-.8 5.3-1.2 8.9-1.2 1.9.1 4.2.3 6.7.6zm-21.5-10.3c.6-.7 1.4-1.2 2.7-1.7s2.5-.9 3.9-1.2c1.4-.3 2.8-.5 4.2-.7 1.4-.1 2.5-.2 3.3-.2 2.9 0 5.5.3 7.7.8s4.1 1.5 5.6 3 2.6 3.5 3.3 6.2c.7 2.6 1 6 .9 10.2-.7-2.3-1.8-4.1-3.5-5.4-1.7-1.3-3.6-2.3-5.7-2.9-2.1-.6-4.2-1-6.2-1.1-2.1-.1-3.8 0-5.2.1-1 .1-2 .2-2.9.3-.9.1-1.8.2-2.7.2-1.5 0-2.7-.2-3.8-.6-1-.4-1.7-1.3-2.1-2.6-.2-.9-.3-1.6-.3-2.3 0-.7.3-1.4.8-2.1zm12.9 24.3c2 0 3.4-.5 4.3-1.6.5-.6.9-1.1 1.1-1.5.2-.5.3-.9.4-1.3s.1-.8 0-1.2v-1.1c-1-.1-2-.1-3.1-.1s-2.1.2-3.1.4c-.9.3-1.7.7-2.4 1.2-.6.6-.9 1.3-.9 2.3 0 2 1.3 2.9 3.7 2.9zm29.8-27c.6 0 .9 0 1.1.1 1.8.3 3.2 1 4 2.3.8 1.3 1.3 3 1.3 5.1v12.3c0 2 .4 3.7 1.2 4.9.8 1.2 2.2 1.8 4.3 1.8.6 0 1.2-.1 1.8-.2-.3 1.2-.6 2.4-1.1 3.5-.5 1.1-1.1 2.1-1.9 3-.8.9-1.7 1.6-2.8 2.1-1.1.5-2.3.8-3.7.8-2 0-3.6-.5-5-1.6-1.3-1-2.4-2.4-3.2-4-.8-1.6-1.4-3.3-1.8-5.1-.4-1.8-.5-3.5-.5-5.2V81.4c0-2.3.5-4.1 1.4-5.5 1-1.3 2.6-2 4.9-2zm17.2 19.9V81.5c0-2.3.5-4.1 1.4-5.5 1-1.4 2.6-2.1 4.9-2.1 1.2 0 2.2.2 3 .6.8.4 1.5.9 1.9 1.6.5.7.8 1.5 1.1 2.4.2.9.3 1.9.3 2.9v20.9c0 2.3-.5 4.1-1.4 5.5-1 1.4-2.6 2.1-4.9 2.1-3.2 0-5.1-1.4-5.9-4.3-.9 1.9-2.2 3.2-4.1 4.1-1.8.8-4 1.3-6.4 1.3 1.7-.6 3.1-1.4 4.3-2.4 1.2-1 2.1-2.1 2.9-3.2.7-1.1 1.3-2.3 1.7-3.5.4-1.2.7-2.3.9-3.4.2-1.1.3-2 .3-2.8v-1.9zm17.3 8.5V81.5c0-2.1.5-3.9 1.4-5.4 1-1.4 2.6-2.2 4.9-2.2 1.2 0 2.2.2 3 .7.8.5 1.4 1.1 1.9 1.9.5.8.8 1.7 1 2.7.2 1 .4 2.1.4 3.1v20c0 2.4-.5 4.3-1.6 5.6-.5.7-1.2 1.2-2.1 1.5-.9.3-1.8.5-2.6.5-2.3 0-3.9-.7-4.9-2.2-1-1.5-1.4-3.3-1.4-5.4zm13.8-26.5c1-1 2.2-1.8 3.6-2.2 1.4-.5 2.7-.7 4.1-.7 2.6 0 4.8.4 6.7 1.3 1.9.9 3.4 2.1 4.6 3.6s2.1 3.3 2.6 5.4c.6 2.1.8 4.3.8 6.7v12.3c0 2.1-.5 3.9-1.4 5.4-1 1.4-2.6 2.2-4.9 2.2-2.3 0-4-.7-4.9-2.2-.9-1.5-1.4-3.2-1.4-5.3V90c0-1.9-.4-3.5-1.2-4.8-.8-1.3-2.2-1.9-4.3-1.9-1 0-1.9.2-2.8.6-.1.1-.3.1-.4.2-.1.1-.2.1-.3.2.1-1.3.1-2.7 0-4.1-.1-1.7-.4-3.1-.8-4.4zm27.3 16.1c0-2.8.4-5.4 1.1-7.8.8-2.3 1.9-4.3 3.3-6 1.4-1.7 3.3-3 5.4-3.9 2.2-.9 4.7-1.4 7.5-1.4 2.1 0 4.1.4 5.9 1.3s3.3 2.2 4.5 4V64.6c0-2.3.5-4.1 1.4-5.5s2.6-2 4.9-2 3.9.7 4.9 2c1 1.4 1.4 3.2 1.4 5.5v37.6c0 2.3-.5 4.1-1.4 5.5-1 1.4-2.6 2.1-4.9 2.1-2.1 0-3.7-.7-4.8-2-.6-.8-1-2.1-1.3-3.7-.2-1.7-.4-3.4-.4-5.1v-4.7c0-1.4.1-2.2.1-2.4 0-2.5-.6-4.5-1.9-6.2-1.3-1.6-3.2-2.4-5.6-2.4-2.4 0-4.3.8-5.6 2.4-1.3 1.6-2 3.7-2 6.2 0 1.5.2 2.8.6 3.9.4 1.1 1 2 1.8 2.7.7.7 1.6 1.3 2.5 1.6s1.8.5 2.7.5c1.4 0 2.6-.3 3.7-1 .3 1.6.6 3.1 1 4.6s.9 2.5 1.4 3.3c-1.2 1-2.6 1.8-4.3 2.4-1.7.6-3.5.9-5.5.9s-3.9-.3-5.9-1c-2-.7-3.7-1.8-5.3-3.3-1.6-1.5-2.9-3.4-3.9-5.8-.8-2.4-1.3-5.3-1.3-8.8zm51.3-18c1.5 0 2.7.3 3.6 1 .9.6 1.6 1.6 2.2 2.9.8-1.6 2-2.8 3.7-3.6 1.7-.8 3.3-1.2 5.1-1.2 1.8 0 3.4.4 4.7 1.1 1.3.7 2 2 2 3.8 0 1.1-.2 2.1-.7 3-.5.9-1.2 1.6-2.1 2.1-1 .5-2.1.6-3.1.6-1.1-.1-2.2-.1-3.3-.1-1.1 0-2 .2-2.8.7-.7.4-1.4 1.1-1.9 2-.6.9-.9 2.4-.9 4.3-1.1-.3-2.1-.5-3.2-.5-2 0-3.8.5-5.6 1.6s-3 2.6-3.8 4.8V81.5c0-2.3.5-4.1 1.4-5.5.8-1.4 2.4-2.1 4.7-2.1zm-6.3 27.3c0-1.3.3-2.5.8-3.6s1.2-2 2.1-2.8c.9-.8 1.9-1.4 3-1.8 1.1-.4 2.3-.6 3.6-.6 1.3 0 2.4.2 3.3.5v9.5c0 2.3-.5 4.1-1.4 5.5-1 1.4-2.6 2.1-4.9 2.1-2.3 0-3.9-.7-4.9-2.2s-1.4-3.2-1.4-5.4l-.2-1.2zm32.2-26.9c.8-.3 1.6-.5 2.3-.5 1.5 0 2.7.6 3.7 1.8 1 1.2 1.8 2.7 2.4 4.5l5 14.5c1.2 3 2.1 6.2 2.7 9.5.6 3.3.9 6.5.8 9.7-.1 1.5-.3 3-.7 4.5-.4 1.5-1 2.9-1.8 4.2-1.1 1.8-2.4 3.2-4 4.2-1.6.9-3.8 1.4-6.7 1.4-1.1 0-2.2-.1-3.1-.4-1-.3-1.8-.7-2.4-1.3-.7-.6-1.1-1.3-1.4-2.1-.3-.8-.3-1.8-.1-2.9.2-1.1.6-1.9 1.2-2.4s1.3-.9 1.9-1.1c.7-.2 1.3-.3 2-.3.6 0 1.1 0 1.4-.1 1.2-.3 2-1 2.5-2.2.5-1.2 1.1-2.9 1.8-5.1l-10-25c-.5-1.1-.8-2.2-1-3.3-.2-1.1-.2-2.2 0-3.2s.5-1.9 1.1-2.7c.5-.7 1.4-1.3 2.4-1.7zm14.9 17 2.2-6.5 1.7-4.7c.6-1.8 1.4-3.3 2.5-4.5 1-1.2 2.3-1.8 3.8-1.8.7 0 1.4.1 2.1.5 1.1.4 1.9 1 2.5 1.8.6.8 1 1.7 1.1 2.7.1 1 .1 2.1-.1 3.2s-.5 2.2-1 3.3l-5.2 12.9-6.4 15.9c.2-1.7.3-3.6.2-5.6-.1-2-.2-4-.5-5.9s-.7-3.9-1.2-5.9c-.4-2-1-3.8-1.7-5.4zm33.3-43.2H412c-1.2 0-2.2 1-2.2 2.2s1 2.2 2.2 2.2h14.7v14.7c0 1.2 1 2.2 2.2 2.2 1.2 0 2.2-1 2.2-2.2V50.3c0-1.2-1-2.2-2.2-2.2z" style="fill:#fff"/></svg>