<svg width="328" height="656" viewBox="0 0 328 656" fill="none" xmlns="http://www.w3.org/2000/svg">
<path d="M325 328C325 507.493 179.493 653 0 653C-179.493 653 -325 507.493 -325 328C-325 148.507 -179.493 3 0 3C179.493 3 325 148.507 325 328Z" stroke="url(#paint0_angular_10_24)" stroke-width="5" stroke-linecap="round" stroke-linejoin="round" stroke-dasharray="22 22"/>
<path d="M267 328C267 475.46 147.46 595 -4.29153e-06 595C-147.46 595 -267 475.46 -267 328C-267 180.54 -147.46 61 -4.29153e-06 61C147.46 61 267 180.54 267 328Z" stroke="url(#paint1_angular_10_24)" stroke-width="4" stroke-linecap="round" stroke-linejoin="round" stroke-dasharray="20 20"/>
<path d="M216 328C216 447.294 119.294 544 0 544C-119.294 544 -216 447.294 -216 328C-216 208.706 -119.294 112 0 112C119.294 112 216 208.706 216 328Z" stroke="url(#paint2_angular_10_24)" stroke-width="3" stroke-linecap="round" stroke-linejoin="round" stroke-dasharray="18 18"/>
<path d="M171 328C171 422.441 94.4407 499 5.30481e-06 499C-94.4407 499 -171 422.441 -171 328C-171 233.559 -94.4407 157 5.30481e-06 157C94.4407 157 171 233.559 171 328Z" stroke="url(#paint3_angular_10_24)" stroke-width="2" stroke-linecap="round" stroke-linejoin="round" stroke-dasharray="16 16"/>
<path d="M122 328C122 395.379 67.3787 450 4.35114e-06 450C-67.3787 450 -122 395.379 -122 328C-122 260.621 -67.3787 206 4.35114e-06 206C67.3787 206 122 260.621 122 328Z" stroke="url(#paint4_angular_10_24)" stroke-width="2" stroke-linecap="round" stroke-linejoin="round" stroke-dasharray="14 14"/>
<path d="M92 328C92 378.81 50.8102 420 -3.54648e-06 420C-50.8102 420 -92 378.81 -92 328C-92 277.19 -50.8102 236 -3.54648e-06 236C50.8102 236 92 277.19 92 328Z" stroke="url(#paint5_angular_10_24)" stroke-width="2" stroke-linecap="round" stroke-linejoin="round" stroke-dasharray="12 12"/>
<path d="M78 328C78 371.078 43.0782 406 -1.74344e-06 406C-43.0782 406 -78 371.078 -78 328C-78 284.922 -43.0782 250 -1.74344e-06 250C43.0782 250 78 284.922 78 328Z" stroke="url(#paint6_angular_10_24)" stroke-width="2" stroke-linecap="round" stroke-linejoin="round" stroke-dasharray="10 10"/>
<path d="M70 328C70 366.66 38.6599 398 6.70552e-07 398C-38.6599 398 -70 366.66 -70 328C-70 289.34 -38.6599 258 6.70552e-07 258C38.6599 258 70 289.34 70 328Z" stroke="url(#paint7_angular_10_24)" stroke-linecap="round" stroke-linejoin="round" stroke-dasharray="10 10"/>
<path d="M57.5077 328C57.5077 359.76 31.7606 385.508 0 385.508C-31.7606 385.508 -57.5077 359.76 -57.5077 328C-57.5077 296.239 -31.7606 270.492 0 270.492C31.7606 270.492 57.5077 296.239 57.5077 328Z" stroke="url(#paint8_angular_10_24)" stroke-linecap="round" stroke-linejoin="round" stroke-dasharray="9 9"/>
<path d="M46.5231 328C46.5231 353.694 25.694 374.523 6.12438e-06 374.523C-25.694 374.523 -46.5231 353.694 -46.5231 328C-46.5231 302.306 -25.694 281.477 6.12438e-06 281.477C25.694 281.477 46.5231 302.306 46.5231 328Z" stroke="url(#paint9_angular_10_24)" stroke-linecap="round" stroke-linejoin="round" stroke-dasharray="8 8"/>
<path d="M36.8307 328C36.8307 348.341 20.341 364.831 -4.25503e-05 364.831C-20.3411 364.831 -36.8308 348.341 -36.8308 328C-36.8308 307.659 -20.3411 291.169 -4.25503e-05 291.169C20.341 291.169 36.8307 307.659 36.8307 328Z" stroke="url(#paint10_angular_10_24)" stroke-linecap="round" stroke-linejoin="round" stroke-dasharray="7 7"/>
<path d="M26.2769 328C26.2769 342.512 14.5123 354.277 5.90831e-06 354.277C-14.5123 354.277 -26.2769 342.512 -26.2769 328C-26.2769 313.488 -14.5123 301.723 5.90831e-06 301.723C14.5123 301.723 26.2769 313.488 26.2769 328Z" stroke="url(#paint11_angular_10_24)" stroke-linecap="round" stroke-linejoin="round" stroke-dasharray="6 6"/>
<path d="M15.8 328C15.8 336.726 8.72611 343.8 1.22823e-05 343.8C-8.72609 343.8 -15.8 336.726 -15.8 328C-15.8 319.274 -8.72609 312.2 1.22823e-05 312.2C8.72611 312.2 15.8 319.274 15.8 328Z" stroke="url(#paint12_angular_10_24)" stroke-linecap="round" stroke-linejoin="round" stroke-dasharray="4 4"/>
<defs>
<radialGradient id="paint0_angular_10_24" cx="0" cy="0" r="1" gradientUnits="userSpaceOnUse" gradientTransform="translate(0 328) rotate(90) scale(325)">
<stop offset="0.807292" stop-color="white"/>
<stop offset="1" stop-color="#999999"/>
</radialGradient>
<radialGradient id="paint1_angular_10_24" cx="0" cy="0" r="1" gradientUnits="userSpaceOnUse" gradientTransform="translate(0 328) rotate(90) scale(267)">
<stop offset="0.807292" stop-color="white"/>
<stop offset="1" stop-color="white"/>
</radialGradient>
<radialGradient id="paint2_angular_10_24" cx="0" cy="0" r="1" gradientUnits="userSpaceOnUse" gradientTransform="translate(0 328) rotate(90) scale(216)">
<stop offset="0.807292" stop-color="white"/>
<stop offset="1" stop-color="white"/>
</radialGradient>
<radialGradient id="paint3_angular_10_24" cx="0" cy="0" r="1" gradientUnits="userSpaceOnUse" gradientTransform="translate(0 328) rotate(90) scale(171)">
<stop offset="0.807292" stop-color="white"/>
<stop offset="1" stop-color="white"/>
</radialGradient>
<radialGradient id="paint4_angular_10_24" cx="0" cy="0" r="1" gradientUnits="userSpaceOnUse" gradientTransform="translate(0 328) rotate(90) scale(122)">
<stop offset="0.807292" stop-color="white"/>
<stop offset="1" stop-color="white"/>
</radialGradient>
<radialGradient id="paint5_angular_10_24" cx="0" cy="0" r="1" gradientUnits="userSpaceOnUse" gradientTransform="translate(0 328) rotate(90) scale(92)">
<stop offset="0.807292" stop-color="white"/>
<stop offset="1" stop-color="white"/>
</radialGradient>
<radialGradient id="paint6_angular_10_24" cx="0" cy="0" r="1" gradientUnits="userSpaceOnUse" gradientTransform="translate(0 328) rotate(90) scale(78)">
<stop offset="0.807292" stop-color="white"/>
<stop offset="1" stop-color="white"/>
</radialGradient>
<radialGradient id="paint7_angular_10_24" cx="0" cy="0" r="1" gradientUnits="userSpaceOnUse" gradientTransform="translate(0 328) rotate(90) scale(70)">
<stop offset="0.807292" stop-color="white"/>
<stop offset="1" stop-color="white"/>
</radialGradient>
<radialGradient id="paint8_angular_10_24" cx="0" cy="0" r="1" gradientUnits="userSpaceOnUse" gradientTransform="translate(0 328) rotate(90) scale(57.5077)">
<stop offset="0.807292" stop-color="white"/>
<stop offset="1" stop-color="white"/>
</radialGradient>
<radialGradient id="paint9_angular_10_24" cx="0" cy="0" r="1" gradientUnits="userSpaceOnUse" gradientTransform="translate(3.8147e-06 328) rotate(90) scale(46.5231)">
<stop offset="0.807292" stop-color="white"/>
<stop offset="1" stop-color="white"/>
</radialGradient>
<radialGradient id="paint10_angular_10_24" cx="0" cy="0" r="1" gradientUnits="userSpaceOnUse" gradientTransform="translate(-4.19617e-05 328) rotate(90) scale(36.8308)">
<stop offset="0.807292" stop-color="white"/>
<stop offset="1" stop-color="white"/>
</radialGradient>
<radialGradient id="paint11_angular_10_24" cx="0" cy="0" r="1" gradientUnits="userSpaceOnUse" gradientTransform="translate(5.72205e-06 328) rotate(90) scale(26.2769)">
<stop offset="0.807292" stop-color="white"/>
<stop offset="1" stop-color="white"/>
</radialGradient>
<radialGradient id="paint12_angular_10_24" cx="0" cy="0" r="1" gradientUnits="userSpaceOnUse" gradientTransform="translate(1.23978e-05 328) rotate(90) scale(15.8)">
<stop offset="0.807292" stop-color="white"/>
<stop offset="1" stop-color="white"/>
</radialGradient>
</defs>
</svg>
