<svg xmlns="http://www.w3.org/2000/svg" xml:space="preserve" id="레이어_1" x="0" y="0" style="enable-background:new 0 0 1200 1200" version="1.1" viewBox="0 0 1200 1200"><style>.st0{fill:#fff}</style><switch><g><path d="m350.26 729.31-38.36-22.84 26.8-10.86 111.08 66.13-26.8 10.86-38.55-22.95-107.91 43.74-34.16-20.34 107.9-43.74z"/><path d="m276.34 795.61-38.48-22.91 107.91-43.74-38.36-22.84 31.45-12.75 115.39 68.7-31.45 12.75-38.55-22.95-107.91 43.74zm-29.51-22.22 29.85 17.77 107.91-43.74 38.55 22.95 22.14-8.98-106.76-63.57-22.14 8.98 38.36 22.84-107.91 43.75z" class="st0"/><path d="m471.72 774.81 34.16 20.34-51.24 20.77 46.76 27.84 51.24-20.77 33.78 20.11-134.7 54.6-33.78-20.11 55.4-22.46-46.76-27.84-55.4 22.46-34.16-20.34 134.7-54.6z"/><path d="m451.55 899.93-38.09-22.68 55.4-22.46-42.45-25.27-55.4 22.46-38.48-22.91 139.35-56.49 38.48 22.91-51.24 20.77 42.45 25.27 51.24-20.77 38.09 22.68-139.35 56.49zm-29.13-22 29.47 17.55 130.05-52.72-29.47-17.55-51.24 20.77-51.07-30.41 51.24-20.77-29.85-17.77-130.05 52.72 29.85 17.77 55.4-22.46 51.07 30.41-55.4 22.46z" class="st0"/><path d="m619.44 862.76 90.08 53.64-26.8 10.86-55.92-33.29-24.99 10.13 47.52 28.29-27.16 11.01-47.52-28.29-28.61 11.6 58.02 34.54-27.16 11.01-92.18-54.88 134.72-54.62z"/><path d="m576.75 974.47-96.5-57.45 139.35-56.49 94.4 56.2-31.45 12.75-55.92-33.29-20.33 8.24 47.52 28.29-31.81 12.89-47.52-28.29-23.95 9.71 58.02 34.54-31.81 12.9zm-87.53-56.77 87.87 52.32 22.51-9.12-58.02-34.54 33.26-13.48 47.52 28.29 22.5-9.12-47.52-28.29 29.64-12.01 55.92 33.29 22.14-8.98-85.77-51.07-130.05 52.71z" class="st0"/><path d="m739.68 934.35 36.83 21.93-35.6 36.97c-4.92 4.86-11.14 9.67-16.8 14.64l.96.57c11.19-1.67 21.99-3.76 32.45-5.32l79.88-10.6 37.03 22.04-134.7 54.6-31.11-18.52 46.17-18.71c13.4-5.43 36.17-11.99 51.1-16.32l-.76-.45-44.06 6.02-68.33 8.6-18.7-11.14 29.97-31.44 20.78-19.88-.76-.46c-11.5 6.38-28.92 16.12-42.32 21.55l-46.17 18.71L605 988.96l134.68-54.61z"/><path d="m739.55 1071.4-35.42-21.09 49.9-20.23c7.77-3.15 18.74-6.7 29.44-9.95l-22.14 3.02-69.04 8.69-21.45-12.77 31.7-33.25 11.91-11.4c-10.17 5.55-22.21 11.87-32.02 15.84l-47.09 19.09-34.85-20.75 139.35-56.49 39.85 23.73-37.34 38.78c-3.27 3.23-7.1 6.44-10.8 9.55-.6.5-1.21 1.01-1.82 1.53 4-.64 7.96-1.32 11.82-1.98 5.41-.93 10.52-1.8 15.67-2.57l80.6-10.7 41.08 24.46-139.35 56.49zm-26.46-20.41 26.8 15.96 130.05-52.72-32.97-19.63-79.19 10.51c-5.07.76-10.16 1.63-15.55 2.55-5.47.94-11.14 1.91-16.86 2.76l-.71.1-3.93-2.34 2.07-1.81c2.02-1.78 4.14-3.55 6.19-5.27 3.81-3.2 7.41-6.21 10.53-9.29l33.81-35.12-33.82-20.13-130.05 52.71 26.22 15.61 45.25-18.34c12.88-5.22 29.82-14.63 41.04-20.85l2.07-1.15 4.01 2.39-22.67 21.7-28.17 29.56 15.96 9.5 67.65-8.51 44.73-6.11 5.32 3.17-5.89 1.71c-14.56 4.23-36.57 10.61-49.44 15.83l-42.45 17.21z" class="st0"/><path d="m907.06 1034.01 90.08 53.63-26.8 10.86-55.92-33.29-24.99 10.13 47.52 28.29-27.16 11.01-47.52-28.29-28.61 11.59 58.02 34.54-27.16 11.01-92.18-54.89 134.72-54.59z"/><path d="m864.37 1145.72-96.5-57.45 139.35-56.49 94.4 56.2-31.45 12.75-55.92-33.29-20.33 8.24 47.52 28.29-31.81 12.89-47.52-28.29-23.95 9.71 58.02 34.54-31.81 12.9zm-87.53-56.77 87.87 52.32 22.5-9.12-58.02-34.54 33.26-13.48 47.52 28.29 22.51-9.12-47.52-28.3 29.64-12.01 55.92 33.29 22.14-8.98-85.77-51.07-130.05 52.72z" class="st0"/><path d="m350.26 708.31-38.36-22.84 26.8-10.86 111.08 66.13-26.8 10.86-38.55-22.95-107.91 43.74-34.16-20.34 107.9-43.74z"/><path d="m276.34 774.61-38.48-22.91 107.91-43.74-38.36-22.84 31.45-12.75 115.39 68.7-31.45 12.75-38.55-22.95-107.91 43.74zm-29.51-22.22 29.85 17.77 107.91-43.74 38.55 22.95 22.14-8.98-106.76-63.57-22.14 8.98 38.36 22.84-107.91 43.75z" class="st0"/><path d="m471.72 753.81 34.16 20.34-51.24 20.77 46.76 27.84 51.24-20.77 33.78 20.11-134.7 54.6-33.78-20.11 55.4-22.46-46.76-27.84-55.4 22.46-34.16-20.34 134.7-54.6z"/><path d="m451.55 878.93-38.09-22.68 55.4-22.46-42.45-25.27-55.4 22.46-38.48-22.91 139.35-56.49 38.48 22.91-51.24 20.77 42.45 25.27 51.24-20.77 38.09 22.68-139.35 56.49zm-29.13-22 29.47 17.55 130.05-52.72-29.47-17.55-51.24 20.77-51.07-30.41 51.24-20.77-29.85-17.77-130.05 52.72 29.85 17.77 55.4-22.46 51.07 30.41-55.4 22.46z" class="st0"/><path d="m619.44 841.76 90.08 53.64-26.8 10.86-55.92-33.29-24.99 10.13 47.52 28.29-27.16 11.01-47.52-28.29-28.61 11.6 58.02 34.54-27.16 11.01-92.18-54.88 134.72-54.62z"/><path d="m576.75 953.47-96.5-57.45 139.35-56.49 94.4 56.2-31.45 12.75-55.92-33.29-20.33 8.24 47.52 28.29-31.81 12.89-47.52-28.29-23.95 9.71 58.02 34.54-31.81 12.9zm-87.53-56.77 87.87 52.32 22.51-9.12-58.02-34.54 33.26-13.48 47.52 28.29 22.5-9.12-47.52-28.29 29.64-12.01 55.92 33.29 22.14-8.98-85.77-51.07-130.05 52.71z" class="st0"/><path d="m739.68 913.35 36.83 21.93-35.6 36.97c-4.92 4.86-11.14 9.67-16.8 14.64l.96.57c11.19-1.67 21.99-3.76 32.45-5.32l79.88-10.6 37.03 22.04-134.7 54.6-31.11-18.52 46.17-18.71c13.4-5.43 36.17-11.99 51.1-16.32l-.76-.45-44.06 6.02-68.33 8.6-18.7-11.14 29.97-31.44 20.78-19.88-.76-.46c-11.5 6.38-28.92 16.12-42.32 21.55l-46.17 18.71L605 967.96l134.68-54.61z"/><path d="m739.55 1050.4-35.42-21.09 49.9-20.23c7.77-3.15 18.74-6.7 29.44-9.95l-22.14 3.02-69.04 8.69-21.45-12.77 31.7-33.25 11.91-11.4c-10.17 5.55-22.21 11.87-32.02 15.84l-47.09 19.09-34.85-20.75 139.35-56.49 39.85 23.73-37.34 38.78c-3.27 3.23-7.1 6.44-10.8 9.55-.6.5-1.21 1.01-1.82 1.53 4-.64 7.96-1.32 11.82-1.98 5.41-.93 10.52-1.8 15.67-2.57l80.6-10.7 41.08 24.46-139.35 56.49zm-26.46-20.41 26.8 15.96 130.05-52.72-32.97-19.63-79.19 10.51c-5.07.76-10.16 1.63-15.55 2.55-5.47.94-11.14 1.91-16.86 2.76l-.71.1-3.93-2.34 2.07-1.81c2.02-1.78 4.14-3.55 6.19-5.27 3.81-3.2 7.41-6.21 10.53-9.29l33.81-35.12-33.82-20.13-130.05 52.71 26.22 15.61 45.25-18.34c12.88-5.22 29.82-14.63 41.04-20.85l2.07-1.15 4.01 2.39-22.67 21.7-28.17 29.56 15.96 9.5 67.65-8.51 44.73-6.11 5.32 3.17-5.89 1.71c-14.56 4.23-36.57 10.61-49.44 15.83l-42.45 17.21z" class="st0"/><path d="m907.06 1013.01 90.08 53.63-26.8 10.86-55.92-33.29-24.99 10.13 47.52 28.29-27.16 11.01-47.52-28.29-28.61 11.59 58.02 34.54-27.16 11.01-92.18-54.89 134.72-54.59z"/><path d="m864.37 1124.72-96.5-57.45 139.35-56.49 94.4 56.2-31.45 12.75-55.92-33.29-20.33 8.24 47.52 28.29-31.81 12.89-47.52-28.29-23.95 9.71 58.02 34.54-31.81 12.9zm-87.53-56.77 87.87 52.32 22.5-9.12-58.02-34.54 33.26-13.48 47.52 28.29 22.51-9.12-47.52-28.3 29.64-12.01 55.92 33.29 22.14-8.98-85.77-51.07-130.05 52.72z" class="st0"/><path d="m350.26 687.31-38.36-22.84 26.8-10.86 111.08 66.13-26.8 10.86-38.55-22.95-107.91 43.74-34.16-20.34 107.9-43.74z"/><path d="m276.34 753.61-38.48-22.91 107.91-43.74-38.36-22.84 31.45-12.75 115.39 68.7-31.45 12.75-38.55-22.95-107.91 43.74zm-29.51-22.22 29.85 17.77 107.91-43.74 38.55 22.95 22.14-8.98-106.76-63.57-22.14 8.98 38.36 22.84-107.91 43.75z" class="st0"/><path d="m471.72 732.81 34.16 20.34-51.24 20.77 46.76 27.84 51.24-20.77 33.78 20.11-134.7 54.6-33.78-20.11 55.4-22.46-46.76-27.84-55.4 22.46-34.16-20.34 134.7-54.6z"/><path d="m451.55 857.93-38.09-22.68 55.4-22.46-42.45-25.27-55.4 22.46-38.48-22.91 139.35-56.49 38.48 22.91-51.24 20.77 42.45 25.27 51.24-20.77 38.09 22.68-139.35 56.49zm-29.13-22 29.47 17.55 130.05-52.72-29.47-17.55-51.24 20.77-51.07-30.41 51.24-20.77-29.85-17.77-130.05 52.72 29.85 17.77 55.4-22.46 51.07 30.41-55.4 22.46z" class="st0"/><path d="m619.44 820.76 90.08 53.64-26.8 10.86-55.92-33.29-24.99 10.13 47.52 28.29-27.16 11.01-47.52-28.29-28.61 11.6 58.02 34.54-27.16 11.01-92.18-54.88 134.72-54.62z"/><path d="m576.75 932.47-96.5-57.45 139.35-56.49 94.4 56.2-31.45 12.75-55.92-33.29-20.33 8.24 47.52 28.29-31.81 12.89-47.52-28.29-23.95 9.71 58.02 34.54-31.81 12.9zm-87.53-56.77 87.87 52.32 22.51-9.12-58.02-34.54 33.26-13.48 47.52 28.29 22.5-9.12-47.52-28.29 29.64-12.01 55.92 33.29 22.14-8.98-85.77-51.07-130.05 52.71z" class="st0"/><path d="m739.68 892.35 36.83 21.93-35.6 36.97c-4.92 4.86-11.14 9.67-16.8 14.64l.96.57c11.19-1.67 21.99-3.76 32.45-5.32l79.88-10.6 37.03 22.04-134.7 54.6-31.11-18.52 46.17-18.71c13.4-5.43 36.17-11.99 51.1-16.32l-.76-.45-44.06 6.02-68.33 8.6-18.7-11.14 29.97-31.44 20.78-19.88-.76-.46c-11.5 6.38-28.92 16.12-42.32 21.55l-46.17 18.71L605 946.96l134.68-54.61z"/><path d="m739.55 1029.4-35.42-21.09 49.9-20.23c7.77-3.15 18.74-6.7 29.44-9.95l-22.14 3.02-69.04 8.69-21.45-12.77 31.7-33.25 11.91-11.4c-10.17 5.55-22.21 11.87-32.02 15.84l-47.09 19.09-34.85-20.75 139.35-56.49 39.85 23.73-37.34 38.78c-3.27 3.23-7.1 6.44-10.8 9.55-.6.5-1.21 1.01-1.82 1.53 4-.64 7.96-1.32 11.82-1.98 5.41-.93 10.52-1.8 15.67-2.57l80.6-10.7 41.08 24.46-139.35 56.49zm-26.46-20.41 26.8 15.96 130.05-52.72-32.97-19.63-79.19 10.51c-5.07.76-10.16 1.63-15.55 2.55-5.47.94-11.14 1.91-16.86 2.76l-.71.1-3.93-2.34 2.07-1.81c2.02-1.78 4.14-3.55 6.19-5.27 3.81-3.2 7.41-6.21 10.53-9.29l33.81-35.12-33.82-20.13-130.05 52.71 26.22 15.61 45.25-18.34c12.88-5.22 29.82-14.63 41.04-20.85l2.07-1.15 4.01 2.39-22.67 21.7-28.17 29.56 15.96 9.5 67.65-8.51 44.73-6.11 5.32 3.17-5.89 1.71c-14.56 4.23-36.57 10.61-49.44 15.83l-42.45 17.21z" class="st0"/><path d="m907.06 992.01 90.08 53.63-26.8 10.86-55.92-33.29-24.99 10.13 47.52 28.29-27.16 11.01-47.52-28.29-28.61 11.59 58.02 34.54-27.16 11.01-92.18-54.89 134.72-54.59z"/><path d="m864.37 1103.72-96.5-57.45 139.35-56.49 94.4 56.2-31.45 12.75-55.92-33.29-20.33 8.24 47.52 28.29-31.81 12.89-47.52-28.29-23.95 9.71 58.02 34.54-31.81 12.9zm-87.53-56.77 87.87 52.32 22.5-9.12-58.02-34.54 33.26-13.48 47.52 28.29 22.51-9.12-47.52-28.3 29.64-12.01 55.92 33.29 22.14-8.98-85.77-51.07-130.05 52.72z" class="st0"/><path d="m350.26 666.31-38.36-22.84 26.8-10.86 111.08 66.13-26.8 10.86-38.55-22.95-107.91 43.74-34.16-20.34 107.9-43.74z"/><path d="m276.34 732.61-38.48-22.91 107.91-43.74-38.36-22.84 31.45-12.75 115.39 68.7-31.45 12.75-38.55-22.95-107.91 43.74zm-29.51-22.22 29.85 17.77 107.91-43.74 38.55 22.95 22.14-8.98-106.76-63.57-22.14 8.98 38.36 22.84-107.91 43.75z" class="st0"/><path d="m471.72 711.81 34.16 20.34-51.24 20.77 46.76 27.84 51.24-20.77 33.78 20.11-134.7 54.6-33.78-20.11 55.4-22.46-46.76-27.84-55.4 22.46-34.16-20.34 134.7-54.6z"/><path d="m451.55 836.93-38.09-22.68 55.4-22.46-42.45-25.27-55.4 22.46-38.48-22.91 139.35-56.49 38.48 22.91-51.24 20.77 42.45 25.27 51.24-20.77 38.09 22.68-139.35 56.49zm-29.13-22 29.47 17.55 130.05-52.72-29.47-17.55-51.24 20.77-51.07-30.41 51.24-20.77-29.85-17.77-130.05 52.72 29.85 17.77 55.4-22.46 51.07 30.41-55.4 22.46z" class="st0"/><path d="m619.44 799.76 90.08 53.64-26.8 10.86-55.92-33.29-24.99 10.13 47.52 28.29-27.16 11.01-47.52-28.29-28.61 11.6 58.02 34.54-27.16 11.01-92.18-54.88 134.72-54.62z"/><path d="m576.75 911.47-96.5-57.45 139.35-56.49 94.4 56.2-31.45 12.75-55.92-33.29-20.33 8.24 47.52 28.29-31.81 12.89-47.52-28.29-23.95 9.71 58.02 34.54-31.81 12.9zm-87.53-56.77 87.87 52.32 22.51-9.12-58.02-34.54 33.26-13.48 47.52 28.29 22.5-9.12-47.52-28.29 29.64-12.01 55.92 33.29 22.14-8.98-85.77-51.07-130.05 52.71z" class="st0"/><path d="m739.68 871.35 36.83 21.93-35.6 36.97c-4.92 4.86-11.14 9.67-16.8 14.64l.96.57c11.19-1.67 21.99-3.76 32.45-5.32l79.88-10.6 37.03 22.04-134.7 54.6-31.11-18.52 46.17-18.71c13.4-5.43 36.17-11.99 51.1-16.32l-.76-.45-44.06 6.02-68.33 8.6-18.7-11.14 29.97-31.44 20.78-19.88-.76-.46c-11.5 6.38-28.92 16.12-42.32 21.55l-46.17 18.71L605 925.96l134.68-54.61z"/><path d="m739.55 1008.4-35.42-21.09 49.9-20.23c7.77-3.15 18.74-6.7 29.44-9.95l-22.14 3.02-69.04 8.69-21.45-12.77 31.7-33.25 11.91-11.4c-10.17 5.55-22.21 11.87-32.02 15.84l-47.09 19.09-34.85-20.75 139.35-56.49 39.85 23.73-37.34 38.78c-3.27 3.23-7.1 6.44-10.8 9.55-.6.5-1.21 1.01-1.82 1.53 4-.64 7.96-1.32 11.82-1.98 5.41-.93 10.52-1.8 15.67-2.57l80.6-10.7 41.08 24.46-139.35 56.49zm-26.46-20.41 26.8 15.96 130.05-52.72-32.97-19.63-79.19 10.51c-5.07.76-10.16 1.63-15.55 2.55-5.47.94-11.14 1.91-16.86 2.76l-.71.1-3.93-2.34 2.07-1.81c2.02-1.78 4.14-3.55 6.19-5.27 3.81-3.2 7.41-6.21 10.53-9.29l33.81-35.12-33.82-20.13-130.05 52.71 26.22 15.61 45.25-18.34c12.88-5.22 29.82-14.63 41.04-20.85l2.07-1.15 4.01 2.39-22.67 21.7-28.17 29.56 15.96 9.5 67.65-8.51 44.73-6.11 5.32 3.17-5.89 1.71c-14.56 4.23-36.57 10.61-49.44 15.83l-42.45 17.21z" class="st0"/><path d="m907.06 971.01 90.08 53.63-26.8 10.86-55.92-33.29-24.99 10.13 47.52 28.29-27.16 11.01-47.52-28.29-28.61 11.59 58.02 34.54-27.16 11.01-92.18-54.89 134.72-54.59z"/><path d="m864.37 1082.72-96.5-57.45 139.35-56.49 94.4 56.2-31.45 12.75-55.92-33.29-20.33 8.24 47.52 28.29-31.81 12.89-47.52-28.29-23.95 9.71 58.02 34.54-31.81 12.9zm-87.53-56.77 87.87 52.32 22.5-9.12-58.02-34.54 33.26-13.48 47.52 28.29 22.51-9.12-47.52-28.3 29.64-12.01 55.92 33.29 22.14-8.98-85.77-51.07-130.05 52.72z" class="st0"/><path d="m350.26 645.31-38.36-22.84 26.8-10.86 111.08 66.13-26.8 10.86-38.55-22.95-107.91 43.74-34.16-20.34 107.9-43.74z"/><path d="m276.34 711.61-38.48-22.91 107.91-43.74-38.36-22.84 31.45-12.75 115.39 68.7-31.45 12.75-38.55-22.95-107.91 43.74zm-29.51-22.22 29.85 17.77 107.91-43.74 38.55 22.95 22.14-8.98-106.76-63.57-22.14 8.98 38.36 22.84-107.91 43.75z" class="st0"/><path d="m471.72 690.81 34.16 20.34-51.24 20.77 46.76 27.84 51.24-20.77 33.78 20.11-134.7 54.6-33.78-20.11 55.4-22.46-46.76-27.84-55.4 22.46-34.16-20.34 134.7-54.6z"/><path d="m451.55 815.93-38.09-22.68 55.4-22.46-42.45-25.27-55.4 22.46-38.48-22.91 139.35-56.49 38.48 22.91-51.24 20.77 42.45 25.27 51.24-20.77 38.09 22.68-139.35 56.49zm-29.13-22 29.47 17.55 130.05-52.72-29.47-17.55-51.24 20.77-51.07-30.41 51.24-20.77-29.85-17.77-130.05 52.72 29.85 17.77 55.4-22.46 51.07 30.41-55.4 22.46z" class="st0"/><path d="m619.44 778.76 90.08 53.64-26.8 10.86-55.92-33.29-24.99 10.13 47.52 28.29-27.16 11.01-47.52-28.29-28.61 11.6 58.02 34.54-27.16 11.01-92.18-54.88 134.72-54.62z"/><path d="m576.75 890.47-96.5-57.45 139.35-56.49 94.4 56.2-31.45 12.75-55.92-33.29-20.33 8.24 47.52 28.29-31.81 12.89-47.52-28.29-23.95 9.71 58.02 34.54-31.81 12.9zm-87.53-56.77 87.87 52.32 22.51-9.12-58.02-34.54 33.26-13.48 47.52 28.29 22.5-9.12-47.52-28.29 29.64-12.01 55.92 33.29 22.14-8.98-85.77-51.07-130.05 52.71z" class="st0"/><path d="m739.68 850.35 36.83 21.93-35.6 36.97c-4.92 4.86-11.14 9.67-16.8 14.64l.96.57c11.19-1.67 21.99-3.76 32.45-5.32l79.88-10.6 37.03 22.04-134.7 54.6-31.11-18.52 46.17-18.71c13.4-5.43 36.17-11.99 51.1-16.32l-.76-.45-44.06 6.02-68.33 8.6-18.7-11.14 29.97-31.44 20.78-19.88-.76-.46c-11.5 6.38-28.92 16.12-42.32 21.55l-46.17 18.71L605 904.96l134.68-54.61z"/><path d="m739.55 987.4-35.42-21.09 49.9-20.23c7.77-3.15 18.74-6.7 29.44-9.95l-22.14 3.02-69.04 8.69-21.45-12.77 31.7-33.25 11.91-11.4c-10.17 5.55-22.21 11.87-32.02 15.84l-47.09 19.09-34.85-20.75 139.35-56.49 39.85 23.73-37.34 38.78c-3.27 3.23-7.1 6.44-10.8 9.55-.6.5-1.21 1.01-1.82 1.53 4-.64 7.96-1.32 11.82-1.98 5.41-.93 10.52-1.8 15.67-2.57l80.6-10.7 41.08 24.46-139.35 56.49zm-26.46-20.41 26.8 15.96 130.05-52.72-32.97-19.63-79.19 10.51c-5.07.76-10.16 1.63-15.55 2.55-5.47.94-11.14 1.91-16.86 2.76l-.71.1-3.93-2.34 2.07-1.81c2.02-1.78 4.14-3.55 6.19-5.27 3.81-3.2 7.41-6.21 10.53-9.29l33.81-35.12-33.82-20.13-130.05 52.71 26.22 15.61 45.25-18.34c12.88-5.22 29.82-14.63 41.04-20.85l2.07-1.15 4.01 2.39-22.67 21.7-28.17 29.56 15.96 9.5 67.65-8.51 44.73-6.11 5.32 3.17-5.89 1.71c-14.56 4.23-36.57 10.61-49.44 15.83l-42.45 17.21z" class="st0"/><path d="m907.06 950.01 90.08 53.63-26.8 10.86-55.92-33.29-24.99 10.13 47.52 28.29-27.16 11.01-47.52-28.29-28.61 11.59 58.02 34.54-27.16 11.01-92.18-54.89 134.72-54.59z"/><path d="m864.37 1061.72-96.5-57.45 139.35-56.49 94.4 56.2-31.45 12.75-55.92-33.29-20.33 8.24 47.52 28.29-31.81 12.89-47.52-28.29-23.95 9.71 58.02 34.54-31.81 12.9zm-87.53-56.77 87.87 52.32 22.5-9.12-58.02-34.54 33.26-13.48 47.52 28.29 22.51-9.12-47.52-28.3 29.64-12.01 55.92 33.29 22.14-8.98-85.77-51.07-130.05 52.72z" class="st0"/><path d="m350.26 624.31-38.36-22.84 26.8-10.86 111.08 66.13-26.8 10.86-38.55-22.95-107.91 43.74-34.16-20.34 107.9-43.74z"/><path d="m276.34 690.61-38.48-22.91 107.91-43.74-38.36-22.84 31.45-12.75 115.39 68.7-31.45 12.75-38.55-22.95-107.91 43.74zm-29.51-22.22 29.85 17.77 107.91-43.74 38.55 22.95 22.14-8.98-106.76-63.57-22.14 8.98 38.36 22.84-107.91 43.75z" class="st0"/><path d="m471.72 669.81 34.16 20.34-51.24 20.77 46.76 27.84 51.24-20.77 33.78 20.11-134.7 54.6-33.78-20.11 55.4-22.46-46.76-27.84-55.4 22.46-34.16-20.34 134.7-54.6z"/><path d="m451.55 794.93-38.09-22.68 55.4-22.46-42.45-25.27-55.4 22.46-38.48-22.91 139.35-56.49 38.48 22.91-51.24 20.77 42.45 25.27 51.24-20.77 38.09 22.68-139.35 56.49zm-29.13-22 29.47 17.55 130.05-52.72-29.47-17.55-51.24 20.77-51.07-30.41 51.24-20.77-29.85-17.77-130.05 52.72 29.85 17.77 55.4-22.46 51.07 30.41-55.4 22.46z" class="st0"/><path d="m619.44 757.76 90.08 53.64-26.8 10.86-55.92-33.29-24.99 10.13 47.52 28.29-27.16 11.01-47.52-28.29-28.61 11.6 58.02 34.54-27.16 11.01-92.18-54.88 134.72-54.62z"/><path d="m576.75 869.47-96.5-57.45 139.35-56.49 94.4 56.2-31.45 12.75-55.92-33.29-20.33 8.24 47.52 28.29-31.81 12.89-47.52-28.29-23.95 9.71 58.02 34.54-31.81 12.9zm-87.53-56.77 87.87 52.32 22.51-9.12-58.02-34.54 33.26-13.48 47.52 28.29 22.5-9.12-47.52-28.29 29.64-12.01 55.92 33.29 22.14-8.98-85.77-51.07-130.05 52.71z" class="st0"/><path d="m739.68 829.35 36.83 21.93-35.6 36.97c-4.92 4.86-11.14 9.67-16.8 14.64l.96.57c11.19-1.67 21.99-3.76 32.45-5.32l79.88-10.6 37.03 22.04-134.7 54.6-31.11-18.52 46.17-18.71c13.4-5.43 36.17-11.99 51.1-16.32l-.76-.45-44.06 6.02-68.33 8.6-18.7-11.14 29.97-31.44 20.78-19.88-.76-.46c-11.5 6.38-28.92 16.12-42.32 21.55l-46.17 18.71L605 883.96l134.68-54.61z"/><path d="m739.55 966.4-35.42-21.09 49.9-20.23c7.77-3.15 18.74-6.7 29.44-9.95l-22.14 3.02-69.04 8.69-21.45-12.77 31.7-33.25 11.91-11.4c-10.17 5.55-22.21 11.87-32.02 15.84l-47.09 19.09-34.85-20.75 139.35-56.49 39.85 23.73-37.34 38.78c-3.27 3.23-7.1 6.44-10.8 9.55-.6.5-1.21 1.01-1.82 1.53 4-.64 7.96-1.32 11.82-1.98 5.41-.93 10.52-1.8 15.67-2.57l80.6-10.7 41.08 24.46-139.35 56.49zm-26.46-20.41 26.8 15.96 130.05-52.72-32.97-19.63-79.19 10.51c-5.07.76-10.16 1.63-15.55 2.55-5.47.94-11.14 1.91-16.86 2.76l-.71.1-3.93-2.34 2.07-1.81c2.02-1.78 4.14-3.55 6.19-5.27 3.81-3.2 7.41-6.21 10.53-9.29l33.81-35.12-33.82-20.13-130.05 52.71 26.22 15.61 45.25-18.34c12.88-5.22 29.82-14.63 41.04-20.85l2.07-1.15 4.01 2.39-22.67 21.7-28.17 29.56 15.96 9.5 67.65-8.51 44.73-6.11 5.32 3.17-5.89 1.71c-14.56 4.23-36.57 10.61-49.44 15.83l-42.45 17.21z" class="st0"/><path d="m907.06 929.01 90.08 53.63-26.8 10.86-55.92-33.29-24.99 10.13 47.52 28.29-27.16 11.01-47.52-28.29-28.61 11.59 58.02 34.54-27.16 11.01-92.18-54.89 134.72-54.59z"/><path d="m864.37 1040.72-96.5-57.45 139.35-56.49 94.4 56.2-31.45 12.75-55.92-33.29-20.33 8.24 47.52 28.29-31.81 12.89-47.52-28.29-23.95 9.71 58.02 34.54-31.81 12.9zm-87.53-56.77 87.87 52.32 22.5-9.12-58.01-34.55 33.26-13.48 47.52 28.29 22.51-9.12L884.96 970l29.64-12.01 55.92 33.29 22.14-8.98-85.77-51.07-130.05 52.72z" class="st0"/><path d="m350.26 603.31-38.36-22.84 26.8-10.86 111.08 66.13-26.8 10.86-38.55-22.95-107.91 43.74-34.16-20.34 107.9-43.74z"/><path d="m276.34 669.61-38.48-22.91 107.91-43.74-38.36-22.84 31.45-12.75 115.39 68.7-31.45 12.75-38.55-22.95-107.91 43.74zm-29.51-22.22 29.85 17.77 107.91-43.74 38.55 22.95 22.14-8.98-106.76-63.57-22.14 8.98 38.36 22.84-107.91 43.75z" class="st0"/><path d="m471.72 648.81 34.16 20.34-51.24 20.77 46.76 27.84 51.24-20.77 33.78 20.11-134.7 54.6-33.78-20.11 55.4-22.46-46.76-27.84-55.4 22.46-34.16-20.34 134.7-54.6z"/><path d="m451.55 773.93-38.09-22.68 55.4-22.46-42.45-25.27-55.4 22.46-38.48-22.91 139.35-56.49 38.48 22.91-51.24 20.77 42.45 25.27 51.24-20.77 38.09 22.68-139.35 56.49zm-29.13-22 29.47 17.55 130.05-52.72-29.47-17.55-51.24 20.77-51.07-30.41 51.24-20.77-29.85-17.77-130.05 52.72 29.85 17.77 55.4-22.46 51.07 30.41-55.4 22.46z" class="st0"/><path d="m619.44 736.76 90.08 53.64-26.8 10.86-55.92-33.29-24.99 10.13 47.52 28.29-27.16 11.01-47.52-28.29-28.61 11.6 58.02 34.54-27.16 11.01-92.18-54.88 134.72-54.62z"/><path d="m576.75 848.47-96.5-57.45 139.35-56.49 94.4 56.2-31.45 12.75-55.92-33.29-20.33 8.24 47.52 28.29-31.81 12.89-47.52-28.29-23.95 9.71 58.02 34.54-31.81 12.9zm-87.53-56.77 87.87 52.32 22.51-9.12-58.02-34.54 33.26-13.48 47.52 28.29 22.5-9.12-47.52-28.29 29.64-12.01 55.92 33.29 22.14-8.98-85.77-51.07-130.05 52.71z" class="st0"/><path d="m739.68 808.35 36.83 21.93-35.6 36.97c-4.92 4.86-11.14 9.67-16.8 14.64l.96.57c11.19-1.67 21.99-3.76 32.45-5.32l79.88-10.6 37.03 22.04-134.7 54.6-31.11-18.52 46.17-18.71c13.4-5.43 36.17-11.99 51.1-16.32l-.76-.45-44.06 6.02-68.33 8.6-18.7-11.14 29.97-31.44 20.78-19.88-.76-.46c-11.5 6.38-28.92 16.12-42.32 21.55l-46.17 18.71L605 862.96l134.68-54.61z"/><path d="m739.55 945.4-35.42-21.09 49.9-20.23c7.77-3.15 18.74-6.7 29.44-9.95l-22.14 3.02-69.04 8.69-21.45-12.77 31.7-33.25 11.91-11.4c-10.17 5.55-22.21 11.87-32.02 15.84l-47.09 19.09-34.85-20.75 139.35-56.49 39.85 23.73-37.34 38.78c-3.27 3.23-7.1 6.44-10.8 9.55-.6.5-1.21 1.01-1.82 1.53 4-.64 7.96-1.32 11.82-1.98 5.41-.93 10.52-1.8 15.67-2.57l80.6-10.7 41.08 24.46-139.35 56.49zm-26.46-20.41 26.8 15.96 130.05-52.72-32.97-19.63-79.19 10.51c-5.07.76-10.16 1.63-15.55 2.55-5.47.94-11.14 1.91-16.86 2.76l-.71.1-3.93-2.34 2.07-1.81c2.02-1.78 4.14-3.55 6.19-5.27 3.81-3.2 7.41-6.21 10.53-9.29l33.81-35.12-33.82-20.13-130.05 52.71 26.22 15.61 45.25-18.34c12.88-5.22 29.82-14.63 41.04-20.85l2.07-1.15 4.01 2.39-22.67 21.7-28.17 29.56 15.96 9.5 67.65-8.51 44.73-6.11 5.32 3.17-5.89 1.71c-14.56 4.23-36.57 10.61-49.44 15.83l-42.45 17.21z" class="st0"/><path d="m907.06 908.01 90.08 53.63-26.8 10.86-55.92-33.29-24.99 10.13 47.52 28.29-27.16 11.01-47.52-28.29-28.61 11.59 58.02 34.54-27.16 11.01-92.18-54.89 134.72-54.59z"/><path d="m864.37 1019.72-96.5-57.45 139.35-56.49 94.4 56.2-31.45 12.75-55.92-33.29-20.33 8.24 47.52 28.29-31.81 12.89-47.52-28.29-23.95 9.71 58.02 34.54-31.81 12.9zm-87.53-56.77 87.87 52.32 22.5-9.12-58.01-34.55 33.26-13.48 47.52 28.29 22.51-9.12L884.96 949l29.64-12.01 55.92 33.29 22.14-8.98-85.77-51.07-130.05 52.72z" class="st0"/><path d="m350.26 582.31-38.36-22.84 26.8-10.86 111.08 66.13-26.8 10.86-38.55-22.95-107.91 43.74-34.16-20.34 107.9-43.74z"/><path d="m276.34 648.61-38.48-22.91 107.91-43.74-38.36-22.84 31.45-12.75 115.39 68.7-31.45 12.75-38.55-22.95-107.91 43.74zm-29.51-22.22 29.85 17.77 107.91-43.74 38.55 22.95 22.14-8.98-106.76-63.57-22.14 8.98 38.36 22.84-107.91 43.75z" class="st0"/><path d="m471.72 627.81 34.16 20.34-51.24 20.77 46.76 27.84 51.24-20.77 33.78 20.11-134.7 54.6-33.78-20.11 55.4-22.46-46.76-27.84-55.4 22.46-34.16-20.34 134.7-54.6z"/><path d="m451.55 752.93-38.09-22.68 55.4-22.46-42.45-25.27-55.4 22.46-38.48-22.91 139.35-56.49 38.48 22.91-51.24 20.77 42.45 25.27 51.24-20.77 38.09 22.68-139.35 56.49zm-29.13-22 29.47 17.55 130.05-52.72-29.47-17.55-51.24 20.77-51.07-30.41 51.24-20.77-29.85-17.77-130.05 52.72 29.85 17.77 55.4-22.46 51.07 30.41-55.4 22.46z" class="st0"/><path d="m619.44 715.76 90.08 53.64-26.8 10.86-55.92-33.29-24.99 10.13 47.52 28.29-27.16 11.01-47.52-28.29-28.61 11.6 58.02 34.54-27.16 11.01-92.18-54.88 134.72-54.62z"/><path d="m576.75 827.47-96.5-57.45 139.35-56.49 94.4 56.2-31.45 12.75-55.92-33.29-20.33 8.24 47.52 28.29-31.81 12.89-47.52-28.29-23.95 9.71 58.02 34.54-31.81 12.9zm-87.53-56.77 87.87 52.32 22.51-9.12-58.02-34.54 33.26-13.48 47.52 28.29 22.5-9.12-47.52-28.29 29.64-12.01 55.92 33.29 22.14-8.98-85.77-51.07-130.05 52.71z" class="st0"/><path d="m739.68 787.35 36.83 21.93-35.6 36.97c-4.92 4.86-11.14 9.67-16.8 14.64l.96.57c11.19-1.67 21.99-3.76 32.45-5.32l79.88-10.6 37.03 22.04-134.7 54.6-31.11-18.52 46.17-18.71c13.4-5.43 36.17-11.99 51.1-16.32l-.76-.45-44.06 6.02-68.33 8.6-18.7-11.14 29.97-31.44 20.78-19.88-.76-.46c-11.5 6.38-28.92 16.12-42.32 21.55l-46.17 18.71L605 841.96l134.68-54.61z"/><path d="m739.55 924.4-35.42-21.09 49.9-20.23c7.77-3.15 18.74-6.7 29.44-9.95l-22.14 3.02-69.04 8.69-21.45-12.77 31.7-33.25 11.91-11.4c-10.17 5.55-22.21 11.87-32.02 15.84l-47.09 19.09-34.85-20.75 139.35-56.49 39.85 23.73-37.34 38.78c-3.27 3.23-7.1 6.44-10.8 9.55-.6.5-1.21 1.01-1.82 1.53 4-.64 7.96-1.32 11.82-1.98 5.41-.93 10.52-1.8 15.67-2.57l80.6-10.7 41.08 24.46-139.35 56.49zm-26.46-20.41 26.8 15.96 130.05-52.72-32.97-19.63-79.19 10.51c-5.07.76-10.16 1.63-15.55 2.55-5.47.94-11.14 1.91-16.86 2.76l-.71.1-3.93-2.34 2.07-1.81c2.02-1.78 4.14-3.55 6.19-5.27 3.81-3.2 7.41-6.21 10.53-9.29l33.81-35.12-33.82-20.13-130.05 52.71 26.22 15.61 45.25-18.34c12.88-5.22 29.82-14.63 41.04-20.85l2.07-1.15 4.01 2.39-22.67 21.7-28.17 29.56 15.96 9.5 67.65-8.51 44.73-6.11 5.32 3.17-5.89 1.71c-14.56 4.23-36.57 10.61-49.44 15.83l-42.45 17.21z" class="st0"/><path d="m907.06 887.01 90.08 53.63-26.8 10.86-55.92-33.29-24.99 10.13 47.52 28.29-27.16 11.01-47.52-28.29-28.61 11.59 58.02 34.54-27.16 11.01-92.18-54.89 134.72-54.59z"/><path d="m864.37 998.72-96.5-57.45 139.35-56.49 94.4 56.2-31.45 12.75-55.92-33.29-20.33 8.24 47.52 28.29-31.81 12.89-47.52-28.29-23.95 9.71 58.02 34.54-31.81 12.9zm-87.53-56.77 87.87 52.32 22.5-9.12-58.01-34.55 33.26-13.48 47.52 28.29 22.51-9.12L884.96 928l29.64-12.01 55.92 33.29 22.14-8.98-85.77-51.07-130.05 52.72z" class="st0"/><path d="m350.26 561.31-38.36-22.84 26.8-10.86 111.08 66.13-26.8 10.86-38.55-22.95-107.91 43.74-34.16-20.34 107.9-43.74z"/><path d="m276.34 627.61-38.48-22.91 107.91-43.74-38.36-22.84 31.45-12.75 115.39 68.7-31.45 12.75-38.55-22.95-107.91 43.74zm-29.51-22.22 29.85 17.77 107.91-43.74 38.55 22.95 22.14-8.98-106.76-63.57-22.14 8.98 38.36 22.84-107.91 43.75z" class="st0"/><path d="m471.72 606.81 34.16 20.34-51.24 20.77 46.76 27.84 51.24-20.77 33.78 20.11-134.7 54.6-33.78-20.11 55.4-22.46-46.76-27.84-55.4 22.46-34.16-20.34 134.7-54.6z"/><path d="m451.55 731.93-38.09-22.68 55.4-22.46-42.45-25.27-55.4 22.46-38.48-22.91 139.35-56.49 38.48 22.91-51.24 20.77 42.45 25.27 51.24-20.77 38.09 22.68-139.35 56.49zm-29.13-22 29.47 17.55 130.05-52.72-29.47-17.55-51.24 20.77-51.07-30.41 51.24-20.77-29.85-17.77-130.05 52.72 29.85 17.77 55.4-22.46 51.07 30.41-55.4 22.46z" class="st0"/><path d="m619.44 694.76 90.08 53.64-26.8 10.86-55.92-33.29-24.99 10.13 47.52 28.29-27.16 11.01-47.52-28.29-28.61 11.6 58.02 34.54-27.16 11.01-92.18-54.88 134.72-54.62z"/><path d="m576.75 806.47-96.5-57.45 139.35-56.49 94.4 56.2-31.45 12.75-55.92-33.29-20.33 8.24 47.52 28.29-31.81 12.89-47.52-28.29-23.95 9.71 58.02 34.54-31.81 12.9zm-87.53-56.77 87.87 52.32 22.51-9.12-58.02-34.54 33.26-13.48 47.52 28.29 22.5-9.12-47.52-28.29 29.64-12.01 55.92 33.29 22.14-8.98-85.77-51.07-130.05 52.71z" class="st0"/><path d="m739.68 766.35 36.83 21.93-35.6 36.97c-4.92 4.86-11.14 9.67-16.8 14.64l.96.57c11.19-1.67 21.99-3.76 32.45-5.32l79.88-10.6 37.03 22.04-134.7 54.6-31.11-18.52 46.17-18.71c13.4-5.43 36.17-11.99 51.1-16.32l-.76-.45-44.06 6.02-68.33 8.6-18.7-11.14 29.97-31.44 20.78-19.88-.76-.46c-11.5 6.38-28.92 16.12-42.32 21.55l-46.17 18.71L605 820.96l134.68-54.61z"/><path d="m739.55 903.4-35.42-21.09 49.9-20.23c7.77-3.15 18.74-6.7 29.44-9.95l-22.14 3.02-69.04 8.69-21.45-12.77 31.7-33.25 11.91-11.4c-10.17 5.55-22.21 11.87-32.02 15.84l-47.09 19.09-34.85-20.75 139.35-56.49 39.85 23.73-37.34 38.78c-3.27 3.23-7.1 6.44-10.8 9.55-.6.5-1.21 1.01-1.82 1.53 4-.64 7.96-1.32 11.82-1.98 5.41-.93 10.52-1.8 15.67-2.57l80.6-10.7 41.08 24.46-139.35 56.49zm-26.46-20.41 26.8 15.96 130.05-52.72-32.97-19.63-79.19 10.51c-5.07.76-10.16 1.63-15.55 2.55-5.47.94-11.14 1.91-16.86 2.76l-.71.1-3.93-2.34 2.07-1.81c2.02-1.78 4.14-3.55 6.19-5.27 3.81-3.2 7.41-6.21 10.53-9.29l33.81-35.12-33.82-20.13-130.05 52.71 26.22 15.61 45.25-18.34c12.88-5.22 29.82-14.63 41.04-20.85l2.07-1.15 4.01 2.39-22.67 21.7-28.17 29.56 15.96 9.5 67.65-8.51 44.73-6.11 5.32 3.17-5.89 1.71c-14.56 4.23-36.57 10.61-49.44 15.83l-42.45 17.21z" class="st0"/><path d="m907.06 866.01 90.08 53.63-26.8 10.86-55.92-33.29-24.99 10.13 47.52 28.29-27.16 11.01-47.52-28.29-28.61 11.59 58.02 34.54-27.16 11.01-92.18-54.89 134.72-54.59z"/><path d="m864.37 977.72-96.5-57.45 139.35-56.49 94.4 56.2-31.45 12.75-55.92-33.29-20.33 8.24 47.52 28.29-31.81 12.89-47.52-28.29-23.95 9.71 58.02 34.54-31.81 12.9zm-87.53-56.77 87.87 52.32 22.5-9.12-58.01-34.55 33.26-13.48 47.52 28.29 22.51-9.12L884.96 907l29.64-12.01 55.92 33.29 22.14-8.98-85.77-51.07-130.05 52.72z" class="st0"/><path d="m350.26 540.31-38.36-22.84 26.8-10.86 111.08 66.13-26.8 10.86-38.55-22.95-107.91 43.74-34.16-20.34 107.9-43.74z"/><path d="m276.34 606.61-38.48-22.91 107.91-43.74-38.36-22.84 31.45-12.75 115.39 68.7-31.45 12.75-38.55-22.95-107.91 43.74zm-29.51-22.22 29.85 17.77 107.91-43.74 38.55 22.95 22.14-8.98-106.76-63.57-22.14 8.98 38.36 22.84-107.91 43.75z" class="st0"/><path d="m471.72 585.81 34.16 20.34-51.24 20.77 46.76 27.84 51.24-20.77 33.78 20.11-134.7 54.6-33.78-20.11 55.4-22.46-46.76-27.84-55.4 22.46-34.16-20.34 134.7-54.6z"/><path d="m451.55 710.93-38.09-22.68 55.4-22.46-42.45-25.27-55.4 22.46-38.48-22.91 139.35-56.49 38.48 22.91-51.24 20.77 42.45 25.27 51.24-20.77 38.09 22.68-139.35 56.49zm-29.13-22 29.47 17.55 130.05-52.72-29.47-17.55-51.24 20.77-51.07-30.41 51.24-20.77-29.85-17.77-130.05 52.72 29.85 17.77 55.4-22.46 51.07 30.41-55.4 22.46z" class="st0"/><path d="m619.44 673.76 90.08 53.64-26.8 10.86-55.92-33.29-24.99 10.13 47.52 28.29-27.16 11.01-47.52-28.29-28.61 11.6 58.02 34.54-27.16 11.01-92.18-54.88 134.72-54.62z"/><path d="m576.75 785.47-96.5-57.45 139.35-56.49 94.4 56.2-31.45 12.75-55.92-33.29-20.33 8.24 47.52 28.29-31.81 12.89-47.52-28.29-23.95 9.71 58.02 34.54-31.81 12.9zm-87.53-56.77 87.87 52.32 22.51-9.12-58.02-34.54 33.26-13.48 47.52 28.29 22.5-9.12-47.52-28.29 29.64-12.01 55.92 33.29 22.14-8.98-85.77-51.07-130.05 52.71z" class="st0"/><path d="m739.68 745.35 36.83 21.93-35.6 36.97c-4.92 4.86-11.14 9.67-16.8 14.64l.96.57c11.19-1.67 21.99-3.76 32.45-5.32l79.88-10.6 37.03 22.04-134.7 54.6-31.11-18.52 46.17-18.71c13.4-5.43 36.17-11.99 51.1-16.32l-.76-.45-44.06 6.02-68.33 8.6-18.7-11.14 29.97-31.44 20.78-19.88-.76-.46c-11.5 6.38-28.92 16.12-42.32 21.55l-46.17 18.71L605 799.96l134.68-54.61z"/><path d="m739.55 882.4-35.42-21.09 49.9-20.23c7.77-3.15 18.74-6.7 29.44-9.95l-22.14 3.02-69.04 8.69-21.45-12.77 31.7-33.25 11.91-11.4c-10.17 5.55-22.21 11.87-32.02 15.84l-47.09 19.09-34.85-20.75 139.35-56.49 39.85 23.73-37.34 38.78c-3.27 3.23-7.1 6.44-10.8 9.55-.6.5-1.21 1.01-1.82 1.53 4-.64 7.96-1.32 11.82-1.98 5.41-.93 10.52-1.8 15.67-2.57l80.6-10.7 41.08 24.46-139.35 56.49zm-26.46-20.41 26.8 15.96 130.05-52.72-32.97-19.63-79.19 10.51c-5.07.76-10.16 1.63-15.55 2.55-5.47.94-11.14 1.91-16.86 2.76l-.71.1-3.93-2.34 2.07-1.81c2.02-1.78 4.14-3.55 6.19-5.27 3.81-3.2 7.41-6.21 10.53-9.29l33.81-35.12-33.82-20.13-130.05 52.71 26.22 15.61 45.25-18.34c12.88-5.22 29.82-14.63 41.04-20.85l2.07-1.15 4.01 2.39-22.67 21.7-28.17 29.56 15.96 9.5 67.65-8.51 44.73-6.11 5.32 3.17-5.89 1.71c-14.56 4.23-36.57 10.61-49.44 15.83l-42.45 17.21z" class="st0"/><path d="m907.06 845.01 90.08 53.63-26.8 10.86-55.92-33.29-24.99 10.13 47.52 28.29-27.16 11.01-47.52-28.29-28.61 11.59 58.02 34.54-27.16 11.01-92.18-54.89 134.72-54.59z"/><path d="m864.37 956.72-96.5-57.45 139.35-56.49 94.4 56.2-31.45 12.75-55.92-33.29-20.33 8.24 47.52 28.29-31.81 12.89-47.52-28.29-23.95 9.71 58.02 34.54-31.81 12.9zm-87.53-56.77 87.87 52.32 22.5-9.12-58.01-34.55 33.26-13.48 47.52 28.29 22.51-9.12L884.96 886l29.64-12.01 55.92 33.29 22.14-8.98-85.77-51.07-130.05 52.72z" class="st0"/><path d="m350.26 519.31-38.36-22.84 26.8-10.86 111.08 66.13-26.8 10.86-38.55-22.95-107.91 43.74-34.16-20.34 107.9-43.74z"/><path d="m276.34 585.61-38.48-22.91 107.91-43.74-38.36-22.84 31.45-12.75 115.39 68.7-31.45 12.75-38.55-22.95-107.91 43.74zm-29.51-22.22 29.85 17.77 107.91-43.74 38.55 22.95 22.14-8.98-106.76-63.57-22.14 8.98 38.36 22.84-107.91 43.75z" class="st0"/><path d="m471.72 564.81 34.16 20.34-51.24 20.77 46.76 27.84 51.24-20.77 33.78 20.11-134.7 54.6-33.78-20.11 55.4-22.46-46.76-27.84-55.4 22.46-34.16-20.34 134.7-54.6z"/><path d="m451.55 689.93-38.09-22.68 55.4-22.46-42.45-25.27-55.4 22.46-38.48-22.91 139.35-56.49 38.48 22.91-51.24 20.77 42.45 25.27 51.24-20.77 38.09 22.68-139.35 56.49zm-29.13-22 29.47 17.55 130.05-52.72-29.47-17.55-51.24 20.77-51.07-30.41 51.24-20.77-29.85-17.77-130.05 52.72 29.85 17.77 55.4-22.46 51.07 30.41-55.4 22.46z" class="st0"/><path d="m619.44 652.76 90.08 53.64-26.8 10.86-55.92-33.29-24.99 10.13 47.52 28.29-27.16 11.01-47.52-28.29-28.61 11.6 58.02 34.54-27.16 11.01-92.18-54.88 134.72-54.62z"/><path d="m576.75 764.47-96.5-57.45 139.35-56.49 94.4 56.2-31.45 12.75-55.92-33.29-20.33 8.24 47.52 28.29-31.81 12.89-47.52-28.29-23.95 9.71 58.02 34.54-31.81 12.9zm-87.53-56.77 87.87 52.32 22.51-9.12-58.02-34.54 33.26-13.48 47.52 28.29 22.5-9.12-47.52-28.29 29.64-12.01 55.92 33.29 22.14-8.98-85.77-51.07-130.05 52.71z" class="st0"/><path d="m739.68 724.35 36.83 21.93-35.6 36.97c-4.92 4.86-11.14 9.67-16.8 14.64l.96.57c11.19-1.67 21.99-3.76 32.45-5.32l79.88-10.6 37.03 22.04-134.7 54.6-31.11-18.52 46.17-18.71c13.4-5.43 36.17-11.99 51.1-16.32l-.76-.45-44.06 6.02-68.33 8.6-18.7-11.14 29.97-31.44 20.78-19.88-.76-.46c-11.5 6.38-28.92 16.12-42.32 21.55l-46.17 18.71L605 778.96l134.68-54.61z"/><path d="m739.55 861.4-35.42-21.09 49.9-20.23c7.77-3.15 18.74-6.7 29.44-9.95l-22.14 3.02-69.04 8.69-21.45-12.77 31.7-33.25 11.91-11.4c-10.17 5.55-22.21 11.87-32.02 15.84l-47.09 19.09-34.85-20.75 139.35-56.49 39.85 23.73-37.34 38.78c-3.27 3.23-7.1 6.44-10.8 9.55-.6.5-1.21 1.01-1.82 1.53 4-.64 7.96-1.32 11.82-1.98 5.41-.93 10.52-1.8 15.67-2.57l80.6-10.7 41.08 24.46-139.35 56.49zm-26.46-20.41 26.8 15.96 130.05-52.72-32.97-19.63-79.19 10.51c-5.07.76-10.16 1.63-15.55 2.55-5.47.94-11.14 1.91-16.86 2.76l-.71.1-3.93-2.34 2.07-1.81c2.02-1.78 4.14-3.55 6.19-5.27 3.81-3.2 7.41-6.21 10.53-9.29l33.81-35.12-33.82-20.13-130.05 52.71 26.22 15.61 45.25-18.34c12.88-5.22 29.82-14.63 41.04-20.85l2.07-1.15 4.01 2.39-22.67 21.7-28.17 29.56 15.96 9.5 67.65-8.51 44.73-6.11 5.32 3.17-5.89 1.71c-14.56 4.23-36.57 10.61-49.44 15.83l-42.45 17.21z" class="st0"/><path d="m907.06 824.01 90.08 53.63-26.8 10.86-55.92-33.29-24.99 10.13 47.52 28.29-27.16 11.01-47.52-28.29-28.61 11.59 58.02 34.54-27.16 11.01-92.18-54.89 134.72-54.59z"/><path d="m864.37 935.72-96.5-57.45 139.35-56.49 94.4 56.2-31.45 12.75-55.92-33.29-20.33 8.24 47.52 28.29-31.81 12.89-47.52-28.29-23.95 9.71 58.02 34.54-31.81 12.9zm-87.53-56.77 87.87 52.32 22.5-9.12-58.01-34.55 33.26-13.48 47.52 28.29 22.51-9.12L884.96 865l29.64-12.01 55.92 33.29 22.14-8.98-85.77-51.07-130.05 52.72z" class="st0"/><path d="m350.26 498.31-38.36-22.84 26.8-10.86 111.08 66.13-26.8 10.86-38.55-22.95-107.91 43.74-34.16-20.34 107.9-43.74z"/><path d="m276.34 564.61-38.48-22.91 107.91-43.74-38.36-22.84 31.45-12.75 115.39 68.7-31.45 12.75-38.55-22.95-107.91 43.74zm-29.51-22.22 29.85 17.77 107.91-43.74 38.55 22.95 22.14-8.98-106.76-63.57-22.14 8.98 38.36 22.84-107.91 43.75z" class="st0"/><path d="m471.72 543.81 34.16 20.34-51.24 20.77 46.76 27.84 51.24-20.77 33.78 20.11-134.7 54.6-33.78-20.11 55.4-22.46-46.76-27.84-55.4 22.46-34.16-20.34 134.7-54.6z"/><path d="m451.55 668.93-38.09-22.68 55.4-22.46-42.45-25.27-55.4 22.46-38.48-22.91 139.35-56.49 38.48 22.91-51.24 20.77 42.45 25.27 51.24-20.77 38.09 22.68-139.35 56.49zm-29.13-22 29.47 17.55 130.05-52.72-29.47-17.55-51.24 20.77-51.07-30.41 51.24-20.77-29.85-17.77-130.05 52.72 29.85 17.77 55.4-22.46 51.07 30.41-55.4 22.46z" class="st0"/><path d="m619.44 631.76 90.08 53.64-26.8 10.86-55.92-33.29-24.99 10.13 47.52 28.29-27.16 11.01-47.52-28.29-28.61 11.6 58.02 34.54-27.16 11.01-92.18-54.88 134.72-54.62z"/><path d="m576.75 743.47-96.5-57.45 139.35-56.49 94.4 56.2-31.45 12.75-55.92-33.29-20.33 8.24 47.52 28.29-31.81 12.89-47.52-28.29-23.95 9.71 58.02 34.54-31.81 12.9zm-87.53-56.77 87.87 52.32 22.51-9.12-58.02-34.54 33.26-13.48 47.52 28.29 22.5-9.12-47.52-28.29 29.64-12.01 55.92 33.29 22.14-8.98-85.77-51.07-130.05 52.71z" class="st0"/><path d="m739.68 703.35 36.83 21.93-35.6 36.97c-4.92 4.86-11.14 9.67-16.8 14.64l.96.57c11.19-1.67 21.99-3.76 32.45-5.32l79.88-10.6 37.03 22.04-134.7 54.6-31.11-18.52 46.17-18.71c13.4-5.43 36.17-11.99 51.1-16.32l-.76-.45-44.06 6.02-68.33 8.6-18.7-11.14 29.97-31.44 20.78-19.88-.76-.46c-11.5 6.38-28.92 16.12-42.32 21.55l-46.17 18.71L605 757.96l134.68-54.61z"/><path d="m739.55 840.4-35.42-21.09 49.9-20.23c7.77-3.15 18.74-6.7 29.44-9.95l-22.14 3.02-69.04 8.69-21.45-12.77 31.7-33.25 11.91-11.4c-10.17 5.55-22.21 11.87-32.02 15.84l-47.09 19.09-34.85-20.75 139.35-56.49 39.85 23.73-37.34 38.78c-3.27 3.23-7.1 6.44-10.8 9.55-.6.5-1.21 1.01-1.82 1.53 4-.64 7.96-1.32 11.82-1.98 5.41-.93 10.52-1.8 15.67-2.57l80.6-10.7 41.08 24.46-139.35 56.49zm-26.46-20.41 26.8 15.96 130.05-52.72-32.97-19.63-79.19 10.51c-5.07.76-10.16 1.63-15.55 2.55-5.47.94-11.14 1.91-16.86 2.76l-.71.1-3.93-2.34 2.07-1.81c2.02-1.78 4.14-3.55 6.19-5.27 3.81-3.2 7.41-6.21 10.53-9.29l33.81-35.12-33.82-20.13-130.05 52.71 26.22 15.61 45.25-18.34c12.88-5.22 29.82-14.63 41.04-20.85l2.07-1.15 4.01 2.39-22.67 21.7-28.17 29.56 15.96 9.5 67.65-8.51 44.73-6.11 5.32 3.17-5.89 1.71c-14.56 4.23-36.57 10.61-49.44 15.83l-42.45 17.21z" class="st0"/><path d="m907.06 803.01 90.08 53.63-26.8 10.86-55.92-33.29-24.99 10.13 47.52 28.29-27.16 11.01-47.52-28.29-28.61 11.59 58.02 34.54-27.16 11.01-92.18-54.89 134.72-54.59z"/><path d="m864.37 914.72-96.5-57.45 139.35-56.49 94.4 56.2-31.45 12.75-55.92-33.29-20.33 8.24 47.52 28.29-31.81 12.89-47.52-28.29-23.95 9.71 58.02 34.54-31.81 12.9zm-87.53-56.77 87.87 52.32 22.5-9.12-58.01-34.55 33.26-13.48 47.52 28.29 22.51-9.12L884.96 844l29.64-12.01 55.92 33.29 22.14-8.98-85.77-51.07-130.05 52.72z" class="st0"/><path d="m350.26 477.31-38.36-22.84 26.8-10.86 111.08 66.13-26.8 10.86-38.55-22.95-107.91 43.74-34.16-20.34 107.9-43.74z"/><path d="m276.34 543.61-38.48-22.91 107.91-43.74-38.36-22.84 31.45-12.75 115.39 68.7-31.45 12.75-38.55-22.95-107.91 43.74zm-29.51-22.22 29.85 17.77 107.91-43.74 38.55 22.95 22.14-8.98-106.76-63.57-22.14 8.98 38.36 22.84-107.91 43.75z" class="st0"/><path d="m471.72 522.81 34.16 20.34-51.24 20.77 46.76 27.84 51.24-20.77 33.78 20.11-134.7 54.6-33.78-20.11 55.4-22.46-46.76-27.84-55.4 22.46-34.16-20.34 134.7-54.6z"/><path d="m451.55 647.93-38.09-22.68 55.4-22.46-42.45-25.27-55.4 22.46-38.48-22.91 139.35-56.49 38.48 22.91-51.24 20.77 42.45 25.27 51.24-20.77 38.09 22.68-139.35 56.49zm-29.13-22 29.47 17.55 130.05-52.72-29.47-17.55-51.24 20.77-51.07-30.41 51.24-20.77-29.85-17.77-130.05 52.72 29.85 17.77 55.4-22.46 51.07 30.41-55.4 22.46z" class="st0"/><path d="m619.44 610.76 90.08 53.64-26.8 10.86-55.92-33.29-24.99 10.13 47.52 28.29-27.16 11.01-47.52-28.29-28.61 11.6 58.02 34.54-27.16 11.01-92.18-54.88 134.72-54.62z"/><path d="m576.75 722.47-96.5-57.45 139.35-56.49 94.4 56.2-31.45 12.75-55.92-33.29-20.33 8.24 47.52 28.29-31.81 12.89-47.52-28.29-23.95 9.71 58.02 34.54-31.81 12.9zm-87.53-56.77 87.87 52.32 22.51-9.12-58.02-34.54 33.26-13.48 47.52 28.29 22.5-9.12-47.52-28.29 29.64-12.01 55.92 33.29 22.14-8.98-85.77-51.07-130.05 52.71z" class="st0"/><path d="m739.68 682.35 36.83 21.93-35.6 36.97c-4.92 4.86-11.14 9.67-16.8 14.64l.96.57c11.19-1.67 21.99-3.76 32.45-5.32l79.88-10.6 37.03 22.04-134.7 54.6-31.11-18.52 46.17-18.71c13.4-5.43 36.17-11.99 51.1-16.32l-.76-.45-44.06 6.02-68.33 8.6-18.7-11.14 29.97-31.44 20.78-19.88-.76-.46c-11.5 6.38-28.92 16.12-42.32 21.55l-46.17 18.71L605 736.96l134.68-54.61z"/><path d="m739.55 819.4-35.42-21.09 49.9-20.23c7.77-3.15 18.74-6.7 29.44-9.95l-22.14 3.02-69.04 8.69-21.45-12.77 31.7-33.25 11.91-11.4c-10.17 5.55-22.21 11.87-32.02 15.84l-47.09 19.09-34.85-20.75 139.35-56.49 39.85 23.73-37.34 38.78c-3.27 3.23-7.1 6.44-10.8 9.55-.6.5-1.21 1.01-1.82 1.53 4-.64 7.96-1.32 11.82-1.98 5.41-.93 10.52-1.8 15.67-2.57l80.6-10.7 41.08 24.46-139.35 56.49zm-26.46-20.41 26.8 15.96 130.05-52.72-32.97-19.63-79.19 10.51c-5.07.76-10.16 1.63-15.55 2.55-5.47.94-11.14 1.91-16.86 2.76l-.71.1-3.93-2.34 2.07-1.81c2.02-1.78 4.14-3.55 6.19-5.27 3.81-3.2 7.41-6.21 10.53-9.29l33.81-35.12-33.82-20.13-130.05 52.71 26.22 15.61 45.25-18.34c12.88-5.22 29.82-14.63 41.04-20.85l2.07-1.15 4.01 2.39-22.67 21.7-28.17 29.56 15.96 9.5 67.65-8.51 44.73-6.11 5.32 3.17-5.89 1.71c-14.56 4.23-36.57 10.61-49.44 15.83l-42.45 17.21z" class="st0"/><path d="m907.06 782.01 90.08 53.63-26.8 10.86-55.92-33.29-24.99 10.13 47.52 28.29-27.16 11.01-47.52-28.29-28.61 11.59 58.02 34.54-27.16 11.01-92.18-54.89 134.72-54.59z"/><path d="m864.37 893.72-96.5-57.45 139.35-56.49 94.4 56.2-31.45 12.75-55.92-33.29-20.33 8.24 47.52 28.29-31.81 12.89-47.52-28.29-23.95 9.71 58.02 34.54-31.81 12.9zm-87.53-56.77 87.87 52.32 22.5-9.12-58.01-34.55 33.26-13.48 47.52 28.29 22.51-9.12L884.96 823l29.64-12.01 55.92 33.29 22.14-8.98-85.77-51.07-130.05 52.72z" class="st0"/><path d="m350.26 456.31-38.36-22.84 26.8-10.86 111.08 66.13-26.8 10.86-38.55-22.95-107.91 43.74-34.16-20.34 107.9-43.74z"/><path d="m276.34 522.61-38.48-22.91 107.91-43.74-38.36-22.84 31.45-12.75 115.39 68.7-31.45 12.75-38.55-22.95-107.91 43.74zm-29.51-22.22 29.85 17.77 107.91-43.74 38.55 22.95 22.14-8.98-106.76-63.57-22.14 8.98 38.36 22.84-107.91 43.75z" class="st0"/><path d="m471.72 501.81 34.16 20.34-51.24 20.77 46.76 27.84 51.24-20.77 33.78 20.11-134.7 54.6-33.78-20.11 55.4-22.46-46.76-27.84-55.4 22.46-34.16-20.34 134.7-54.6z"/><path d="m451.55 626.93-38.09-22.68 55.4-22.46-42.45-25.27-55.4 22.46-38.48-22.91 139.35-56.49 38.48 22.91-51.24 20.77 42.45 25.27 51.24-20.77 38.09 22.68-139.35 56.49zm-29.13-22 29.47 17.55 130.05-52.72-29.47-17.55-51.24 20.77-51.07-30.41 51.24-20.77-29.85-17.77-130.05 52.72 29.85 17.77 55.4-22.46 51.07 30.41-55.4 22.46z" class="st0"/><path d="m619.44 589.76 90.08 53.64-26.8 10.86-55.92-33.29-24.99 10.13 47.52 28.29-27.16 11.01-47.52-28.29-28.61 11.6 58.02 34.54-27.16 11.01-92.18-54.88 134.72-54.62z"/><path d="m576.75 701.47-96.5-57.45 139.35-56.49 94.4 56.2-31.45 12.75-55.92-33.29-20.33 8.24 47.52 28.29-31.81 12.89-47.52-28.29-23.95 9.71 58.02 34.54-31.81 12.9zm-87.53-56.77 87.87 52.32 22.51-9.12-58.02-34.54 33.26-13.48 47.52 28.29 22.5-9.12-47.52-28.29 29.64-12.01 55.92 33.29 22.14-8.98-85.77-51.07-130.05 52.71z" class="st0"/><path d="m739.68 661.35 36.83 21.93-35.6 36.97c-4.92 4.86-11.14 9.67-16.8 14.64l.96.57c11.19-1.67 21.99-3.76 32.45-5.32l79.88-10.6 37.03 22.04-134.7 54.6-31.11-18.52 46.17-18.71c13.4-5.43 36.17-11.99 51.1-16.32l-.76-.45-44.06 6.02-68.33 8.6-18.7-11.14 29.97-31.44 20.78-19.88-.76-.46c-11.5 6.38-28.92 16.12-42.32 21.55l-46.17 18.71L605 715.96l134.68-54.61z"/><path d="m739.55 798.4-35.42-21.09 49.9-20.23c7.77-3.15 18.74-6.7 29.44-9.95l-22.14 3.02-69.04 8.69-21.45-12.77 31.7-33.25 11.91-11.4c-10.17 5.55-22.21 11.87-32.02 15.84l-47.09 19.09-34.85-20.75 139.35-56.49 39.85 23.73-37.34 38.78c-3.27 3.23-7.1 6.44-10.8 9.55-.6.5-1.21 1.01-1.82 1.53 4-.64 7.96-1.32 11.82-1.98 5.41-.93 10.52-1.8 15.67-2.57l80.6-10.7 41.08 24.46-139.35 56.49zm-26.46-20.41 26.8 15.96 130.05-52.72-32.97-19.63-79.19 10.51c-5.07.76-10.16 1.63-15.55 2.55-5.47.94-11.14 1.91-16.86 2.76l-.71.1-3.93-2.34 2.07-1.81c2.02-1.78 4.14-3.55 6.19-5.27 3.81-3.2 7.41-6.21 10.53-9.29l33.81-35.12-33.82-20.13-130.05 52.71 26.22 15.61 45.25-18.34c12.88-5.22 29.82-14.63 41.04-20.85l2.07-1.15 4.01 2.39-22.67 21.7-28.17 29.56 15.96 9.5 67.65-8.51 44.73-6.11 5.32 3.17-5.89 1.71c-14.56 4.23-36.57 10.61-49.44 15.83l-42.45 17.21z" class="st0"/><path d="m907.06 761.01 90.08 53.63-26.8 10.86-55.92-33.29-24.99 10.13 47.52 28.29-27.16 11.01-47.52-28.29-28.61 11.59 58.02 34.54-27.16 11.01-92.18-54.89 134.72-54.59z"/><path d="m864.37 872.72-96.5-57.45 139.35-56.49 94.4 56.2-31.45 12.75-55.92-33.29-20.33 8.24 47.52 28.29-31.81 12.89-47.52-28.29-23.95 9.71 58.02 34.54-31.81 12.9zm-87.53-56.77 87.87 52.32 22.5-9.12-58.01-34.55 33.26-13.48 47.52 28.29 22.51-9.12L884.96 802l29.64-12.01 55.92 33.29 22.14-8.98-85.77-51.07-130.05 52.72z" class="st0"/><path d="m350.26 435.31-38.36-22.84 26.8-10.86 111.08 66.13-26.8 10.86-38.55-22.95-107.91 43.74-34.16-20.34 107.9-43.74z"/><path d="m276.34 501.61-38.48-22.91 107.91-43.74-38.36-22.84 31.45-12.75 115.39 68.7-31.45 12.75-38.55-22.95-107.91 43.74zm-29.51-22.22 29.85 17.77 107.91-43.74 38.55 22.95 22.14-8.98-106.76-63.57-22.14 8.98 38.36 22.84-107.91 43.75z" class="st0"/><path d="m471.72 480.81 34.16 20.34-51.24 20.77 46.76 27.84 51.24-20.77 33.78 20.11-134.7 54.6-33.78-20.11 55.4-22.46-46.76-27.84-55.4 22.46-34.16-20.34 134.7-54.6z"/><path d="m451.55 605.93-38.09-22.68 55.4-22.46-42.45-25.27-55.4 22.46-38.48-22.91 139.35-56.49 38.48 22.91-51.24 20.77 42.45 25.27 51.24-20.77 38.09 22.68-139.35 56.49zm-29.13-22 29.47 17.55 130.05-52.72-29.47-17.55-51.24 20.77-51.07-30.41 51.24-20.77-29.85-17.77-130.05 52.72 29.85 17.77 55.4-22.46 51.07 30.41-55.4 22.46z" class="st0"/><path d="m619.44 568.76 90.08 53.64-26.8 10.86-55.92-33.29-24.99 10.13 47.52 28.29-27.16 11.01-47.52-28.29-28.61 11.6 58.02 34.54-27.16 11.01-92.18-54.88 134.72-54.62z"/><path d="m576.75 680.47-96.5-57.45 139.35-56.49 94.4 56.2-31.45 12.75-55.92-33.29-20.33 8.24 47.52 28.29-31.81 12.89-47.52-28.29-23.95 9.71 58.02 34.54-31.81 12.9zm-87.53-56.77 87.87 52.32 22.51-9.12-58.02-34.54 33.26-13.48 47.52 28.29 22.5-9.12-47.52-28.29 29.64-12.01 55.92 33.29 22.14-8.98-85.77-51.07-130.05 52.71z" class="st0"/><path d="m739.68 640.35 36.83 21.93-35.6 36.97c-4.92 4.86-11.14 9.67-16.8 14.64l.96.57c11.19-1.67 21.99-3.76 32.45-5.32l79.88-10.6 37.03 22.04-134.7 54.6-31.11-18.52 46.17-18.71c13.4-5.43 36.17-11.99 51.1-16.32l-.76-.45-44.06 6.02-68.33 8.6-18.7-11.14 29.97-31.44 20.78-19.88-.76-.46c-11.5 6.38-28.92 16.12-42.32 21.55l-46.17 18.71L605 694.96l134.68-54.61z"/><path d="m739.55 777.4-35.42-21.09 49.9-20.23c7.77-3.15 18.74-6.7 29.44-9.95l-22.14 3.02-69.04 8.69-21.45-12.77 31.7-33.25 11.91-11.4c-10.17 5.55-22.21 11.87-32.02 15.84l-47.09 19.09-34.85-20.75 139.35-56.49 39.85 23.73-37.34 38.78c-3.27 3.23-7.1 6.44-10.8 9.55-.6.5-1.21 1.01-1.82 1.53 4-.64 7.96-1.32 11.82-1.98 5.41-.93 10.52-1.8 15.67-2.57l80.6-10.7 41.08 24.46-139.35 56.49zm-26.46-20.41 26.8 15.96 130.05-52.72-32.97-19.63-79.19 10.51c-5.07.76-10.16 1.63-15.55 2.55-5.47.94-11.14 1.91-16.86 2.76l-.71.1-3.93-2.34 2.07-1.81c2.02-1.78 4.14-3.55 6.19-5.27 3.81-3.2 7.41-6.21 10.53-9.29l33.81-35.12-33.82-20.13-130.05 52.71 26.22 15.61 45.25-18.34c12.88-5.22 29.82-14.63 41.04-20.85l2.07-1.15 4.01 2.39-22.67 21.7-28.17 29.56 15.96 9.5 67.65-8.51 44.73-6.11 5.32 3.17-5.89 1.71c-14.56 4.23-36.57 10.61-49.44 15.83l-42.45 17.21z" class="st0"/><path d="m907.06 740.01 90.08 53.63-26.8 10.86-55.92-33.29-24.99 10.13 47.52 28.29-27.16 11.01-47.52-28.29-28.61 11.59 58.02 34.54-27.16 11.01-92.18-54.89 134.72-54.59z"/><path d="m864.37 851.72-96.5-57.45 139.35-56.49 94.4 56.2-31.45 12.75-55.92-33.29-20.33 8.24 47.52 28.29-31.81 12.89-47.52-28.29-23.95 9.71 58.02 34.54-31.81 12.9zm-87.53-56.77 87.87 52.32 22.5-9.12-58.01-34.55 33.26-13.48 47.52 28.29 22.51-9.12L884.96 781l29.64-12.01 55.92 33.29 22.14-8.98-85.77-51.07-130.05 52.72z" class="st0"/><path d="m350.26 414.31-38.36-22.84 26.8-10.86 111.08 66.13-26.8 10.86-38.55-22.95-107.91 43.74-34.16-20.34 107.9-43.74z"/><path d="m276.34 480.61-38.48-22.91 107.91-43.74-38.36-22.84 31.45-12.75 115.39 68.7-31.45 12.75-38.55-22.95-107.91 43.74zm-29.51-22.22 29.85 17.77 107.91-43.74 38.55 22.95 22.14-8.98-106.76-63.57-22.14 8.98 38.36 22.84-107.91 43.75z" class="st0"/><path d="m471.72 459.81 34.16 20.34-51.24 20.77 46.76 27.84 51.24-20.77 33.78 20.11-134.7 54.6-33.78-20.11 55.4-22.46-46.76-27.84-55.4 22.46-34.16-20.34 134.7-54.6z"/><path d="m451.55 584.93-38.09-22.68 55.4-22.46-42.45-25.27-55.4 22.46-38.48-22.91 139.35-56.49 38.48 22.91-51.24 20.77 42.45 25.27 51.24-20.77 38.09 22.68-139.35 56.49zm-29.13-22 29.47 17.55 130.05-52.72-29.47-17.55-51.24 20.77-51.07-30.41 51.24-20.77-29.85-17.77-130.05 52.72 29.85 17.77 55.4-22.46 51.07 30.41-55.4 22.46z" class="st0"/><path d="m619.44 547.76 90.08 53.64-26.8 10.86-55.92-33.29-24.99 10.13 47.52 28.29-27.16 11.01-47.52-28.29-28.61 11.6 58.02 34.54-27.16 11.01-92.18-54.88 134.72-54.62z"/><path d="m576.75 659.47-96.5-57.45 139.35-56.49 94.4 56.2-31.45 12.75-55.92-33.29-20.33 8.24 47.52 28.29-31.81 12.89-47.52-28.29-23.95 9.71 58.02 34.54-31.81 12.9zm-87.53-56.77 87.87 52.32 22.51-9.12-58.02-34.54 33.26-13.48 47.52 28.29 22.5-9.12-47.52-28.3 29.64-12.01 55.92 33.29 22.14-8.98-85.77-51.07-130.05 52.72z" class="st0"/><path d="m739.68 619.35 36.83 21.93-35.6 36.97c-4.92 4.86-11.14 9.67-16.8 14.64l.96.57c11.19-1.67 21.99-3.76 32.45-5.32l79.88-10.6 37.03 22.04-134.7 54.6-31.11-18.52 46.17-18.71c13.4-5.43 36.17-11.99 51.1-16.32l-.76-.45-44.06 6.02-68.33 8.6-18.7-11.14 29.97-31.44 20.78-19.88-.76-.46c-11.5 6.38-28.92 16.12-42.32 21.55l-46.17 18.71L605 673.96l134.68-54.61z"/><path d="m739.55 756.4-35.42-21.09 49.9-20.23c7.77-3.15 18.74-6.7 29.44-9.95l-22.14 3.02-69.04 8.69-21.45-12.77 31.7-33.25 11.91-11.4c-10.17 5.55-22.21 11.87-32.02 15.84l-47.09 19.09-34.85-20.75 139.35-56.49 39.85 23.73-37.34 38.78c-3.27 3.23-7.1 6.44-10.8 9.55-.6.5-1.21 1.01-1.82 1.53 4-.64 7.96-1.32 11.82-1.98 5.41-.93 10.52-1.8 15.67-2.57l80.6-10.7 41.08 24.46-139.35 56.49zm-26.46-20.41 26.8 15.96 130.05-52.72-32.97-19.63-79.19 10.51c-5.07.76-10.16 1.63-15.55 2.55-5.47.94-11.14 1.91-16.86 2.76l-.71.1-3.93-2.34 2.07-1.81c2.02-1.78 4.14-3.55 6.19-5.27 3.81-3.2 7.41-6.21 10.53-9.29l33.81-35.12-33.82-20.13-130.05 52.71 26.22 15.61 45.25-18.34c12.88-5.22 29.82-14.63 41.04-20.85l2.07-1.15 4.01 2.39-22.67 21.7-28.17 29.56 15.96 9.5 67.65-8.51 44.73-6.11 5.32 3.17-5.89 1.71c-14.56 4.23-36.57 10.61-49.44 15.83l-42.45 17.21z" class="st0"/><path d="m907.06 719.01 90.08 53.63-26.8 10.86-55.92-33.29-24.99 10.13 47.52 28.29-27.16 11.01-47.52-28.29-28.61 11.59 58.02 34.54-27.16 11.01-92.18-54.89 134.72-54.59z"/><path d="m864.37 830.72-96.5-57.45 139.35-56.49 94.4 56.2-31.45 12.75-55.92-33.29-20.33 8.24 47.52 28.29-31.81 12.89-47.52-28.29-23.95 9.71 58.02 34.54-31.81 12.9zm-87.53-56.77 87.87 52.32 22.5-9.12-58.01-34.55 33.26-13.48 47.52 28.29 22.51-9.12L884.96 760l29.64-12.01 55.92 33.29 22.14-8.98-85.77-51.07-130.05 52.72z" class="st0"/><path d="m350.26 393.31-38.36-22.84 26.8-10.86 111.08 66.13-26.8 10.86-38.55-22.95-107.91 43.74-34.16-20.34 107.9-43.74z"/><path d="m276.34 459.61-38.48-22.91 107.91-43.74-38.36-22.84 31.45-12.75 115.39 68.7-31.45 12.75-38.55-22.95-107.91 43.74zm-29.51-22.22 29.85 17.77 107.91-43.74 38.55 22.95 22.14-8.98-106.76-63.57-22.14 8.98 38.36 22.84-107.91 43.75z" class="st0"/><path d="m471.72 438.81 34.16 20.34-51.24 20.77 46.76 27.84 51.24-20.77 33.78 20.11-134.7 54.6-33.78-20.11 55.4-22.46-46.76-27.84-55.4 22.46-34.16-20.34 134.7-54.6z"/><path d="m451.55 563.93-38.09-22.68 55.4-22.46-42.45-25.27-55.4 22.46-38.48-22.91 139.35-56.49 38.48 22.91-51.24 20.77 42.45 25.27 51.24-20.77 38.09 22.68-139.35 56.49zm-29.13-22 29.47 17.55 130.05-52.72-29.47-17.55-51.24 20.77-51.07-30.41 51.24-20.77-29.85-17.77-130.05 52.72 29.85 17.77 55.4-22.46 51.07 30.41-55.4 22.46z" class="st0"/><path d="m619.44 526.76 90.08 53.64-26.8 10.86-55.92-33.29-24.99 10.13 47.52 28.29-27.16 11.01-47.52-28.29-28.61 11.6 58.02 34.54-27.16 11.01-92.18-54.88 134.72-54.62z"/><path d="m576.75 638.47-96.5-57.45 139.35-56.49 94.4 56.2-31.45 12.75-55.92-33.29-20.33 8.24 47.52 28.29-31.81 12.89-47.52-28.29-23.95 9.71 58.02 34.54-31.81 12.9zm-87.53-56.77 87.87 52.32 22.51-9.12-58.02-34.55 33.26-13.48 47.52 28.29 22.5-9.12-47.52-28.29 29.64-12.01 55.92 33.29 22.14-8.98-85.77-51.07-130.05 52.72z" class="st0"/><path d="m739.68 598.35 36.83 21.93-35.6 36.97c-4.92 4.86-11.14 9.67-16.8 14.64l.96.57c11.19-1.67 21.99-3.76 32.45-5.32l79.88-10.6 37.03 22.04-134.7 54.6-31.11-18.52 46.17-18.71c13.4-5.43 36.17-11.99 51.1-16.32l-.76-.45-44.06 6.02-68.33 8.6-18.7-11.14 29.97-31.44 20.78-19.88-.76-.46c-11.5 6.38-28.92 16.12-42.32 21.55l-46.17 18.71L605 652.96l134.68-54.61z"/><path d="m739.55 735.4-35.42-21.09 49.9-20.23c7.77-3.15 18.74-6.7 29.44-9.95l-22.14 3.02-69.04 8.69-21.45-12.77 31.7-33.25 11.91-11.4c-10.17 5.55-22.21 11.87-32.02 15.84l-47.09 19.09-34.85-20.75 139.35-56.49 39.85 23.73-37.34 38.78c-3.27 3.23-7.1 6.44-10.8 9.55-.6.5-1.21 1.01-1.82 1.53 4-.64 7.96-1.32 11.82-1.98 5.41-.93 10.52-1.8 15.67-2.57l80.6-10.7 41.08 24.46-139.35 56.49zm-26.46-20.41 26.8 15.96 130.05-52.72-32.97-19.63-79.19 10.51c-5.07.76-10.16 1.63-15.55 2.55-5.47.94-11.14 1.91-16.86 2.76l-.71.1-3.93-2.34 2.07-1.81c2.02-1.78 4.14-3.55 6.19-5.27 3.81-3.2 7.41-6.21 10.53-9.29l33.81-35.12-33.82-20.13-130.05 52.71 26.22 15.61 45.25-18.34c12.88-5.22 29.82-14.63 41.04-20.85l2.07-1.15 4.01 2.39-22.67 21.7-28.17 29.56 15.96 9.5 67.65-8.51 44.73-6.11 5.32 3.17-5.89 1.71c-14.56 4.23-36.57 10.61-49.44 15.83l-42.45 17.21z" class="st0"/><path d="m907.06 698.01 90.08 53.63-26.8 10.86-55.92-33.29-24.99 10.13 47.52 28.29-27.16 11.01-47.52-28.29-28.61 11.59 58.02 34.54-27.16 11.01-92.18-54.89 134.72-54.59z"/><path d="m864.37 809.72-96.5-57.45 139.35-56.49 94.4 56.2-31.45 12.75-55.92-33.29-20.33 8.24 47.52 28.29-31.81 12.89-47.52-28.29-23.95 9.71 58.02 34.54-31.81 12.9zm-87.53-56.77 87.87 52.32 22.5-9.12-58.01-34.55 33.26-13.48 47.52 28.29 22.51-9.12L884.96 739l29.64-12.01 55.92 33.29 22.14-8.98-85.77-51.07-130.05 52.72z" class="st0"/><path d="m350.26 372.31-38.36-22.84 26.8-10.86 111.08 66.13-26.8 10.86-38.55-22.95-107.91 43.74-34.16-20.34 107.9-43.74z"/><path d="m276.34 438.61-38.48-22.91 107.91-43.74-38.36-22.84 31.45-12.75 115.39 68.7-31.45 12.75-38.55-22.95-107.91 43.74zm-29.51-22.22 29.85 17.77 107.91-43.74 38.55 22.95 22.14-8.98-106.76-63.57-22.14 8.98 38.36 22.84-107.91 43.75z" class="st0"/><path d="m471.72 417.81 34.16 20.34-51.24 20.77 46.76 27.84 51.24-20.77 33.78 20.11-134.7 54.6-33.78-20.11 55.4-22.46-46.76-27.84-55.4 22.46-34.16-20.34 134.7-54.6z"/><path d="m451.55 542.93-38.09-22.68 55.4-22.46-42.45-25.27-55.4 22.46-38.48-22.91 139.35-56.49 38.48 22.91-51.24 20.77 42.45 25.27 51.24-20.77 38.09 22.68-139.35 56.49zm-29.13-22 29.47 17.55 130.05-52.72-29.47-17.55-51.24 20.77-51.07-30.41 51.24-20.77-29.85-17.77-130.05 52.72 29.85 17.77 55.4-22.46 51.07 30.41-55.4 22.46z" class="st0"/><path d="m619.44 505.76 90.08 53.64-26.8 10.86-55.92-33.29-24.99 10.13 47.52 28.29-27.16 11.01-47.52-28.29-28.61 11.6 58.02 34.54-27.16 11.01-92.18-54.88 134.72-54.62z"/><path d="m576.75 617.47-96.5-57.45 139.35-56.49 94.4 56.2-31.45 12.75-55.92-33.29-20.33 8.24 47.52 28.29-31.81 12.89-47.52-28.29-23.95 9.71 58.02 34.54-31.81 12.9zm-87.53-56.77 87.87 52.32 22.51-9.12-58.02-34.55 33.26-13.48 47.52 28.29 22.5-9.12-47.52-28.29 29.64-12.01 55.92 33.29 22.14-8.98-85.77-51.07-130.05 52.72z" class="st0"/><path d="m739.68 577.35 36.83 21.93-35.6 36.97c-4.92 4.86-11.14 9.67-16.8 14.64l.96.57c11.19-1.67 21.99-3.76 32.45-5.32l79.88-10.6 37.03 22.04-134.7 54.6-31.11-18.52 46.17-18.71c13.4-5.43 36.17-11.99 51.1-16.32l-.76-.45-44.06 6.02-68.33 8.6-18.7-11.14 29.97-31.44 20.78-19.88-.76-.46c-11.5 6.38-28.92 16.12-42.32 21.55l-46.17 18.71L605 631.96l134.68-54.61z"/><path d="m739.55 714.4-35.42-21.09 49.9-20.23c7.77-3.15 18.74-6.7 29.44-9.95l-22.14 3.02-69.04 8.69-21.45-12.77 31.7-33.25 11.91-11.4c-10.17 5.55-22.21 11.87-32.02 15.84l-47.09 19.09-34.85-20.75 139.35-56.49 39.85 23.73-37.34 38.78c-3.27 3.23-7.1 6.44-10.8 9.55-.6.5-1.21 1.01-1.82 1.53 4-.64 7.96-1.32 11.82-1.98 5.41-.93 10.52-1.8 15.67-2.57l80.6-10.7 41.08 24.46-139.35 56.49zm-26.46-20.41 26.8 15.96 130.05-52.72-32.97-19.63-79.19 10.51c-5.07.76-10.16 1.63-15.55 2.55-5.47.94-11.14 1.91-16.86 2.76l-.71.1-3.93-2.34 2.07-1.81c2.02-1.78 4.14-3.55 6.19-5.27 3.81-3.2 7.41-6.21 10.53-9.29l33.81-35.12-33.82-20.13-130.05 52.71 26.22 15.61 45.25-18.34c12.88-5.22 29.82-14.63 41.04-20.85l2.07-1.15 4.01 2.39-22.67 21.7-28.17 29.56 15.96 9.5 67.65-8.51 44.73-6.11 5.32 3.17-5.89 1.71c-14.56 4.23-36.57 10.61-49.44 15.83l-42.45 17.21z" class="st0"/><path d="m907.06 677.01 90.08 53.63-26.8 10.86-55.92-33.29-24.99 10.13 47.52 28.29-27.16 11.01-47.52-28.29-28.61 11.59 58.02 34.54-27.16 11.01-92.18-54.89 134.72-54.59z"/><path d="m864.37 788.72-96.5-57.45 139.35-56.49 94.4 56.2-31.45 12.75-55.92-33.29-20.33 8.24 47.52 28.29-31.81 12.89-47.52-28.29-23.95 9.71 58.02 34.54-31.81 12.9zm-87.53-56.77 87.87 52.32 22.5-9.12-58.01-34.55 33.26-13.48 47.52 28.29 22.51-9.12L884.96 718l29.64-12.01 55.92 33.29 22.14-8.98-85.77-51.07-130.05 52.72z" class="st0"/><path d="m350.26 351.31-38.36-22.84 26.8-10.86 111.08 66.13-26.8 10.86-38.55-22.95-107.91 43.74-34.16-20.34 107.9-43.74z"/><path d="m276.34 417.61-38.48-22.91 107.91-43.74-38.36-22.84 31.45-12.75 115.39 68.7-31.45 12.75-38.55-22.95-107.91 43.74zm-29.51-22.22 29.85 17.77 107.91-43.74 38.55 22.95 22.14-8.98-106.76-63.57-22.14 8.98 38.36 22.84-107.91 43.75z" class="st0"/><path d="m471.72 396.81 34.16 20.34-51.24 20.77 46.76 27.84 51.24-20.77 33.78 20.11-134.7 54.6-33.78-20.11 55.4-22.46-46.76-27.84-55.4 22.46-34.16-20.34 134.7-54.6z"/><path d="m451.55 521.93-38.09-22.68 55.4-22.46-42.45-25.27-55.4 22.46-38.48-22.91 139.35-56.49 38.48 22.91-51.24 20.77 42.45 25.27 51.24-20.77 38.09 22.68-139.35 56.49zm-29.13-22 29.47 17.55 130.05-52.72-29.47-17.55-51.24 20.77-51.07-30.41 51.24-20.77-29.85-17.77-130.05 52.72 29.85 17.77 55.4-22.46 51.07 30.41-55.4 22.46z" class="st0"/><path d="m619.44 484.76 90.08 53.64-26.8 10.86-55.92-33.29-24.99 10.13 47.52 28.29-27.16 11.01-47.52-28.29-28.61 11.6 58.02 34.54-27.16 11.01-92.18-54.88 134.72-54.62z"/><path d="m576.75 596.47-96.5-57.45 139.35-56.49 94.4 56.2-31.45 12.75-55.92-33.29-20.33 8.24 47.52 28.29-31.81 12.89-47.52-28.29-23.95 9.71 58.02 34.54-31.81 12.9zm-87.53-56.77 87.87 52.32 22.51-9.12-58.02-34.54 33.26-13.48 47.52 28.29 22.5-9.12-47.52-28.29 29.64-12.01 55.92 33.29 22.14-8.98-85.77-51.07-130.05 52.71z" class="st0"/><path d="m739.68 556.35 36.83 21.93-35.6 36.97c-4.92 4.86-11.14 9.67-16.8 14.64l.96.57c11.19-1.67 21.99-3.76 32.45-5.32l79.88-10.6 37.03 22.04-134.7 54.6-31.11-18.52 46.17-18.71c13.4-5.43 36.17-11.99 51.1-16.32l-.76-.45-44.06 6.02-68.33 8.6-18.7-11.14 29.97-31.44 20.78-19.88-.76-.46c-11.5 6.38-28.92 16.12-42.32 21.55l-46.17 18.71L605 610.96l134.68-54.61z"/><path d="m739.55 693.4-35.42-21.09 49.9-20.23c7.77-3.15 18.74-6.7 29.44-9.95l-22.14 3.02-69.04 8.69-21.45-12.77 31.7-33.25 11.91-11.4c-10.17 5.55-22.21 11.87-32.02 15.84l-47.09 19.09-34.85-20.75 139.35-56.49 39.85 23.73-37.34 38.78c-3.27 3.23-7.1 6.44-10.8 9.55-.6.5-1.21 1.01-1.82 1.53 4-.64 7.96-1.32 11.82-1.98 5.41-.93 10.52-1.8 15.67-2.57l80.6-10.7 41.08 24.46-139.35 56.49zm-26.46-20.41 26.8 15.96 130.05-52.72-32.97-19.63-79.19 10.51c-5.07.76-10.16 1.63-15.55 2.55-5.47.94-11.14 1.91-16.86 2.76l-.71.1-3.93-2.34 2.07-1.81c2.02-1.78 4.14-3.55 6.19-5.27 3.81-3.2 7.41-6.21 10.53-9.29l33.81-35.12-33.82-20.13-130.05 52.71 26.22 15.61 45.25-18.34c12.88-5.22 29.82-14.63 41.04-20.85l2.07-1.15 4.01 2.39-22.67 21.7-28.17 29.56 15.96 9.5 67.65-8.51 44.73-6.11 5.32 3.17-5.89 1.71c-14.56 4.23-36.57 10.61-49.44 15.83l-42.45 17.21z" class="st0"/><path d="m907.06 656.01 90.08 53.63-26.8 10.86-55.92-33.29-24.99 10.13 47.52 28.29-27.16 11.01-47.52-28.29-28.61 11.59 58.02 34.54-27.16 11.01-92.18-54.89 134.72-54.59z"/><path d="m864.37 767.72-96.5-57.45 139.35-56.49 94.4 56.2-31.45 12.75-55.92-33.29-20.33 8.24 47.52 28.29-31.81 12.89-47.52-28.29-23.95 9.71 58.02 34.54-31.81 12.9zm-87.53-56.77 87.87 52.32 22.5-9.12-58.01-34.55 33.26-13.48 47.52 28.29 22.51-9.12L884.96 697l29.64-12.01 55.92 33.29 22.14-8.98-85.77-51.07-130.05 52.72z" class="st0"/><path d="m350.26 330.31-38.36-22.84 26.8-10.86 111.08 66.13-26.8 10.86-38.55-22.95-107.91 43.74-34.16-20.34 107.9-43.74z"/><path d="m276.34 396.61-38.48-22.91 107.91-43.74-38.36-22.84 31.45-12.75 115.39 68.7-31.45 12.75-38.55-22.95-107.91 43.74zm-29.51-22.22 29.85 17.77 107.91-43.74 38.55 22.95 22.14-8.98-106.76-63.57-22.14 8.98 38.36 22.84-107.91 43.75z" class="st0"/><path d="m471.72 375.81 34.16 20.34-51.24 20.77 46.76 27.84 51.24-20.77 33.78 20.11-134.7 54.6-33.78-20.11 55.4-22.46-46.76-27.84-55.4 22.46-34.16-20.34 134.7-54.6z"/><path d="m451.55 500.93-38.09-22.68 55.4-22.46-42.45-25.27-55.4 22.46-38.48-22.91 139.35-56.49 38.48 22.91-51.24 20.77 42.45 25.27 51.24-20.77 38.09 22.68-139.35 56.49zm-29.13-22 29.47 17.55 130.05-52.72-29.47-17.55-51.24 20.77-51.07-30.41 51.24-20.77-29.85-17.77-130.05 52.72 29.85 17.77 55.4-22.46 51.07 30.41-55.4 22.46z" class="st0"/><path d="m619.44 463.76 90.08 53.64-26.8 10.86-55.92-33.29-24.99 10.13 47.52 28.29-27.16 11.01-47.52-28.29-28.61 11.6 58.02 34.54-27.16 11.01-92.18-54.88 134.72-54.62z"/><path d="m576.75 575.47-96.5-57.45 139.35-56.49 94.4 56.2-31.45 12.75-55.92-33.29-20.33 8.24 47.52 28.29-31.81 12.89-47.52-28.29-23.95 9.71 58.02 34.54-31.81 12.9zm-87.53-56.77 87.87 52.32 22.51-9.12-58.02-34.54 33.26-13.48 47.52 28.29 22.5-9.12-47.52-28.29 29.64-12.01 55.92 33.29 22.14-8.98-85.77-51.07-130.05 52.71z" class="st0"/><path d="m739.68 535.35 36.83 21.93-35.6 36.97c-4.92 4.86-11.14 9.67-16.8 14.64l.96.57c11.19-1.67 21.99-3.76 32.45-5.32l79.88-10.6 37.03 22.04-134.7 54.6-31.11-18.52 46.17-18.71c13.4-5.43 36.17-11.99 51.1-16.32l-.76-.45-44.06 6.02-68.33 8.6-18.7-11.14 29.97-31.44 20.78-19.88-.76-.46c-11.5 6.38-28.92 16.12-42.32 21.55l-46.17 18.71L605 589.96l134.68-54.61z"/><path d="m739.55 672.4-35.42-21.09 49.9-20.23c7.77-3.15 18.74-6.7 29.44-9.95l-22.14 3.02-69.04 8.69-21.45-12.77 31.7-33.25 11.91-11.4c-10.17 5.55-22.21 11.87-32.02 15.84l-47.09 19.09-34.85-20.75 139.35-56.49 39.85 23.73-37.34 38.78c-3.27 3.23-7.1 6.44-10.8 9.55-.6.5-1.21 1.01-1.82 1.53 4-.64 7.96-1.32 11.82-1.98 5.41-.93 10.52-1.8 15.67-2.57l80.6-10.7 41.08 24.46-139.35 56.49zm-26.46-20.41 26.8 15.96 130.05-52.72-32.97-19.63-79.19 10.51c-5.07.76-10.16 1.63-15.55 2.55-5.47.94-11.14 1.91-16.86 2.76l-.71.1-3.93-2.34 2.07-1.81c2.02-1.78 4.14-3.55 6.19-5.27 3.81-3.2 7.41-6.21 10.53-9.29l33.81-35.12-33.82-20.13-130.05 52.72 26.22 15.61 45.25-18.34c12.88-5.22 29.82-14.63 41.04-20.85l2.07-1.15 4.01 2.39-22.67 21.7-28.17 29.56 15.96 9.5 67.65-8.51 44.73-6.11 5.32 3.17-5.89 1.71c-14.56 4.23-36.57 10.61-49.44 15.83l-42.45 17.2z" class="st0"/><path d="m907.06 635.01 90.08 53.63-26.8 10.86-55.92-33.29-24.99 10.13 47.52 28.29-27.16 11.01-47.52-28.29-28.61 11.59 58.02 34.54-27.16 11.01-92.18-54.89 134.72-54.59z"/><path d="m864.37 746.72-96.5-57.45 139.35-56.49 94.4 56.2-31.45 12.75-55.92-33.29-20.33 8.24 47.52 28.29-31.81 12.89-47.52-28.29-23.95 9.71 58.02 34.54-31.81 12.9zm-87.53-56.77 87.87 52.32 22.5-9.12-58.01-34.55 33.26-13.48 47.52 28.29 22.51-9.12L884.96 676l29.64-12.01 55.92 33.29 22.14-8.98-85.77-51.07-130.05 52.72z" class="st0"/><path d="m350.26 309.31-38.36-22.84 26.8-10.86 111.08 66.13-26.8 10.86-38.55-22.95-107.91 43.74-34.16-20.34 107.9-43.74z"/><path d="m276.34 375.61-38.48-22.91 107.91-43.74-38.36-22.84 31.45-12.75 115.39 68.7-31.45 12.75-38.55-22.95-107.91 43.74zm-29.51-22.22 29.85 17.77 107.91-43.74 38.55 22.95 22.14-8.98-106.76-63.57-22.14 8.98 38.36 22.84-107.91 43.75z" class="st0"/><path d="m471.72 354.81 34.16 20.34-51.24 20.77 46.76 27.84 51.24-20.77 33.78 20.11-134.7 54.6-33.78-20.11 55.4-22.46-46.76-27.84-55.4 22.46-34.16-20.34 134.7-54.6z"/><path d="m451.55 479.93-38.09-22.68 55.4-22.46-42.45-25.27-55.4 22.46-38.48-22.91 139.35-56.49 38.48 22.91-51.24 20.77 42.45 25.27 51.24-20.77 38.09 22.68-139.35 56.49zm-29.13-22 29.47 17.55 130.05-52.72-29.47-17.55-51.24 20.77-51.07-30.41 51.24-20.77-29.85-17.77-130.05 52.72 29.85 17.77 55.4-22.46 51.07 30.41-55.4 22.46z" class="st0"/><path d="m619.44 442.76 90.08 53.64-26.8 10.86-55.92-33.29-24.99 10.13 47.52 28.29-27.16 11.01-47.52-28.29-28.61 11.6 58.02 34.54-27.16 11.01-92.18-54.88 134.72-54.62z"/><path d="m576.75 554.47-96.5-57.45 139.35-56.49 94.4 56.2-31.45 12.75-55.92-33.29-20.33 8.24 47.52 28.29-31.81 12.89-47.52-28.29-23.95 9.71 58.02 34.54-31.81 12.9zm-87.53-56.77 87.87 52.32 22.51-9.12-58.02-34.54 33.26-13.48 47.52 28.29 22.5-9.12-47.52-28.29 29.64-12.01 55.92 33.29 22.14-8.98-85.77-51.07-130.05 52.71z" class="st0"/><path d="m739.68 514.35 36.83 21.93-35.6 36.97c-4.92 4.86-11.14 9.67-16.8 14.64l.96.57c11.19-1.67 21.99-3.76 32.45-5.32l79.88-10.6 37.03 22.04-134.7 54.6-31.11-18.52 46.17-18.71c13.4-5.43 36.17-11.99 51.1-16.32l-.76-.45-44.06 6.02-68.33 8.6-18.7-11.14 29.97-31.44 20.78-19.88-.76-.46c-11.5 6.38-28.92 16.12-42.32 21.55l-46.17 18.71L605 568.96l134.68-54.61z"/><path d="m739.55 651.4-35.42-21.09 49.9-20.23c7.77-3.15 18.74-6.7 29.44-9.95l-22.14 3.02-69.04 8.69-21.45-12.77 31.7-33.25 11.91-11.4c-10.17 5.55-22.21 11.87-32.02 15.84l-47.09 19.09-34.85-20.75 139.35-56.49 39.85 23.73-37.34 38.78c-3.27 3.23-7.1 6.44-10.8 9.55-.6.5-1.21 1.01-1.82 1.53 4-.64 7.96-1.32 11.82-1.98 5.41-.93 10.52-1.8 15.67-2.57l80.6-10.7 41.08 24.46-139.35 56.49zm-26.46-20.41 26.8 15.96 130.05-52.72-32.97-19.63-79.19 10.51c-5.07.76-10.16 1.63-15.55 2.55-5.47.94-11.14 1.91-16.86 2.76l-.71.11-3.93-2.34 2.07-1.81c2.02-1.78 4.14-3.55 6.19-5.27 3.81-3.2 7.41-6.21 10.53-9.29l33.81-35.12-33.82-20.13-130.05 52.72 26.22 15.61 45.25-18.34c12.88-5.22 29.82-14.63 41.04-20.85l2.07-1.15 4.01 2.39-22.67 21.7-28.17 29.56 15.96 9.5 67.65-8.51 44.73-6.11 5.32 3.17-5.89 1.71c-14.56 4.23-36.57 10.61-49.44 15.83l-42.45 17.19z" class="st0"/><path d="m907.06 614.01 90.08 53.63-26.8 10.86-55.92-33.29-24.99 10.13 47.52 28.29-27.16 11.01-47.52-28.29-28.61 11.59 58.02 34.54-27.16 11.01-92.18-54.89 134.72-54.59z"/><path d="m864.37 725.72-96.5-57.45 139.35-56.49 94.4 56.2-31.45 12.75-55.92-33.29-20.33 8.24 47.52 28.29-31.81 12.89-47.52-28.29-23.95 9.71 58.02 34.54-31.81 12.9zm-87.53-56.77 87.87 52.32 22.5-9.12-58.01-34.55 33.26-13.48 47.52 28.29 22.51-9.12L884.96 655l29.64-12.01 55.92 33.29 22.14-8.98-85.77-51.07-130.05 52.72z" class="st0"/><path d="m350.26 288.31-38.36-22.84 26.8-10.86 111.08 66.13-26.8 10.86-38.55-22.95-107.91 43.74-34.16-20.34 107.9-43.74z"/><path d="m276.34 354.61-38.48-22.91 107.91-43.74-38.36-22.84 31.45-12.75 115.39 68.7-31.45 12.75-38.55-22.95-107.91 43.74zm-29.51-22.22 29.85 17.77 107.91-43.74 38.55 22.95 22.14-8.98-106.76-63.57-22.14 8.98 38.36 22.84-107.91 43.75z" class="st0"/><path d="m471.72 333.81 34.16 20.34-51.24 20.77 46.76 27.84 51.24-20.77 33.78 20.11-134.7 54.6-33.78-20.11 55.4-22.46-46.76-27.84-55.4 22.46-34.16-20.34 134.7-54.6z"/><path d="m451.55 458.93-38.09-22.68 55.4-22.46-42.45-25.27-55.4 22.46-38.48-22.91 139.35-56.49 38.48 22.91-51.24 20.77 42.45 25.27 51.24-20.77 38.09 22.68-139.35 56.49zm-29.13-22 29.47 17.55 130.05-52.72-29.47-17.55-51.24 20.77-51.07-30.41 51.24-20.77-29.85-17.77-130.05 52.72 29.85 17.77 55.4-22.46 51.07 30.41-55.4 22.46z" class="st0"/><path d="m619.44 421.76 90.08 53.64-26.8 10.86-55.92-33.29-24.99 10.13 47.52 28.29-27.16 11.01-47.52-28.29-28.61 11.6 58.02 34.54-27.16 11.01-92.18-54.88 134.72-54.62z"/><path d="m576.75 533.47-96.5-57.45 139.35-56.49 94.4 56.2-31.45 12.75-55.92-33.29-20.33 8.24 47.52 28.29-31.81 12.89-47.52-28.29-23.95 9.71 58.02 34.54-31.81 12.9zm-87.53-56.77 87.87 52.32 22.51-9.12-58.02-34.54 33.26-13.48 47.52 28.29 22.5-9.12-47.52-28.29 29.64-12.01 55.92 33.29 22.14-8.98-85.77-51.07-130.05 52.71z" class="st0"/><path d="m739.68 493.35 36.83 21.93-35.6 36.97c-4.92 4.86-11.14 9.67-16.8 14.64l.96.57c11.19-1.67 21.99-3.76 32.45-5.32l79.88-10.6 37.03 22.04-134.7 54.6-31.11-18.52 46.17-18.71c13.4-5.43 36.17-11.99 51.1-16.32l-.76-.45-44.06 6.02-68.33 8.6-18.7-11.14 29.97-31.44 20.78-19.88-.76-.46c-11.5 6.38-28.92 16.12-42.32 21.55l-46.17 18.71L605 547.96l134.68-54.61z"/><path d="m739.55 630.4-35.42-21.09 49.9-20.23c7.77-3.15 18.74-6.69 29.44-9.95l-22.14 3.02-69.04 8.69-21.45-12.77 31.7-33.25 11.91-11.4c-10.17 5.55-22.21 11.87-32.02 15.84l-47.09 19.09-34.85-20.75 139.35-56.49 39.85 23.73-37.34 38.78c-3.27 3.23-7.1 6.44-10.8 9.55-.6.5-1.21 1.01-1.82 1.53 4-.64 7.96-1.32 11.82-1.98 5.41-.93 10.52-1.8 15.67-2.57l80.6-10.7 41.08 24.46-139.35 56.49zm-26.46-20.41 26.8 15.96 130.05-52.72-32.97-19.63-79.19 10.51c-5.07.76-10.16 1.63-15.55 2.55-5.47.94-11.14 1.91-16.86 2.76l-.71.11-3.93-2.34 2.07-1.81c2.02-1.78 4.14-3.55 6.19-5.27 3.81-3.2 7.41-6.21 10.53-9.29l33.81-35.12-33.82-20.13-130.05 52.72 26.22 15.61 45.25-18.34c12.88-5.22 29.82-14.63 41.04-20.85l2.07-1.15 4.01 2.39-22.67 21.7-28.17 29.56 15.96 9.5 67.65-8.51 44.73-6.11 5.32 3.17-5.89 1.71c-14.56 4.23-36.57 10.61-49.44 15.83l-42.45 17.19z" class="st0"/><path d="m907.06 593.01 90.08 53.63-26.8 10.86-55.92-33.29-24.99 10.13 47.52 28.29-27.16 11.01-47.52-28.29-28.61 11.59 58.02 34.54-27.16 11.01-92.18-54.89 134.72-54.59z"/><path d="m864.37 704.72-96.5-57.45 139.35-56.49 94.4 56.2-31.45 12.75-55.92-33.29-20.33 8.24 47.52 28.29-31.81 12.89-47.52-28.29-23.95 9.71 58.02 34.54-31.81 12.9zm-87.53-56.77 87.87 52.32 22.5-9.12-58.01-34.55 33.26-13.48 47.52 28.29 22.51-9.12L884.96 634l29.64-12.01 55.92 33.29 22.14-8.98-85.77-51.07-130.05 52.72z" class="st0"/><path d="m350.26 267.31-38.36-22.84 26.8-10.86 111.08 66.13-26.8 10.86-38.55-22.95-107.91 43.74-34.16-20.34 107.9-43.74z"/><path d="m276.34 333.61-38.48-22.91 107.91-43.74-38.36-22.84 31.45-12.75 115.39 68.7-31.45 12.75-38.55-22.95-107.91 43.74zm-29.51-22.22 29.85 17.77 107.91-43.74 38.55 22.95 22.14-8.98-106.76-63.57-22.14 8.98 38.36 22.84-107.91 43.75z" class="st0"/><path d="m471.72 312.81 34.16 20.34-51.24 20.77 46.76 27.84 51.24-20.77 33.78 20.11-134.7 54.6-33.78-20.11 55.4-22.46-46.76-27.84-55.4 22.46-34.16-20.34 134.7-54.6z"/><path d="m451.55 437.93-38.09-22.68 55.4-22.46-42.45-25.27-55.4 22.46-38.48-22.91 139.35-56.49 38.48 22.91-51.24 20.77 42.45 25.27 51.24-20.77 38.09 22.68-139.35 56.49zm-29.13-22 29.47 17.55 130.05-52.72-29.47-17.55-51.24 20.77-51.07-30.41 51.24-20.77-29.85-17.77-130.05 52.72 29.85 17.77 55.4-22.46 51.07 30.41-55.4 22.46z" class="st0"/><path d="m619.44 400.76 90.08 53.64-26.8 10.86-55.92-33.29-24.99 10.13 47.52 28.29-27.16 11.01-47.52-28.29-28.61 11.6 58.02 34.54-27.16 11.01-92.18-54.88 134.72-54.62z"/><path d="m576.75 512.47-96.5-57.45 139.35-56.49 94.4 56.2-31.45 12.75-55.92-33.29-20.33 8.24 47.52 28.29-31.81 12.89-47.52-28.29-23.95 9.71 58.02 34.54-31.81 12.9zm-87.53-56.77 87.87 52.32 22.51-9.12-58.02-34.54 33.26-13.48 47.52 28.29 22.5-9.12-47.52-28.29 29.64-12.01 55.92 33.29 22.14-8.98-85.77-51.07-130.05 52.71z" class="st0"/><path d="m739.68 472.35 36.83 21.93-35.6 36.97c-4.92 4.86-11.14 9.67-16.8 14.64l.96.57c11.19-1.67 21.99-3.76 32.45-5.32l79.88-10.6 37.03 22.04-134.7 54.6-31.11-18.52 46.17-18.71c13.4-5.43 36.17-11.99 51.1-16.32l-.76-.45-44.06 6.02-68.33 8.6-18.7-11.14 29.97-31.44 20.78-19.88-.76-.46c-11.5 6.38-28.92 16.12-42.32 21.55l-46.17 18.71L605 526.96l134.68-54.61z"/><path d="m739.55 609.4-35.42-21.09 49.9-20.23c7.77-3.15 18.74-6.69 29.44-9.95l-22.14 3.02-69.04 8.69-21.45-12.77 31.7-33.25 11.91-11.4c-10.17 5.55-22.21 11.87-32.02 15.84l-47.09 19.09-34.85-20.75 139.35-56.49 39.85 23.73-37.34 38.78c-3.27 3.23-7.1 6.44-10.8 9.55-.6.5-1.21 1.01-1.82 1.53 4-.64 7.96-1.32 11.82-1.98 5.41-.93 10.52-1.8 15.67-2.57l80.6-10.7 41.08 24.46-139.35 56.49zm-26.46-20.41 26.8 15.95 130.05-52.72-32.97-19.63-79.19 10.51c-5.07.76-10.16 1.63-15.55 2.55-5.47.94-11.14 1.91-16.86 2.76l-.71.11-3.93-2.34 2.07-1.81c2.02-1.78 4.14-3.55 6.19-5.27 3.81-3.2 7.41-6.21 10.53-9.29l33.81-35.12-33.82-20.13-130.05 52.72 26.22 15.61 45.25-18.34c12.88-5.22 29.82-14.63 41.04-20.85l2.07-1.15 4.01 2.39-22.67 21.7-28.17 29.56 15.96 9.5 67.65-8.51 44.73-6.11 5.32 3.17-5.89 1.71c-14.56 4.23-36.57 10.61-49.44 15.83l-42.45 17.2z" class="st0"/><path d="m907.06 572.01 90.08 53.63-26.8 10.86-55.92-33.29-24.99 10.13 47.52 28.29-27.16 11.01-47.52-28.29-28.61 11.59 58.02 34.54-27.16 11.01-92.18-54.89 134.72-54.59z"/><path d="m864.37 683.72-96.5-57.45 139.35-56.49 94.4 56.2-31.45 12.75-55.92-33.29-20.33 8.24 47.52 28.29-31.81 12.89-47.52-28.29-23.95 9.71 58.02 34.54-31.81 12.9zm-87.53-56.77 87.87 52.32 22.5-9.12-58.01-34.55 33.26-13.48 47.52 28.29 22.51-9.12L884.96 613l29.64-12.01 55.92 33.29 22.14-8.98-85.77-51.07-130.05 52.72z" class="st0"/><path d="m350.26 246.31-38.36-22.84 26.8-10.86 111.08 66.13-26.8 10.86-38.55-22.95-107.91 43.74-34.16-20.34 107.9-43.74z"/><path d="m276.34 312.61-38.48-22.91 107.91-43.74-38.36-22.84 31.45-12.75 115.39 68.7-31.45 12.75-38.55-22.95-107.91 43.74zm-29.51-22.22 29.85 17.77 107.91-43.74 38.55 22.95 22.14-8.98-106.76-63.57-22.14 8.98 38.36 22.84-107.91 43.75z" class="st0"/><path d="m471.72 291.81 34.16 20.34-51.24 20.77 46.76 27.84 51.24-20.77 33.78 20.11-134.7 54.6-33.78-20.11 55.4-22.46-46.76-27.84-55.4 22.46-34.16-20.34 134.7-54.6z"/><path d="m451.55 416.93-38.09-22.68 55.4-22.46-42.45-25.27-55.4 22.46-38.48-22.91 139.35-56.49 38.48 22.91-51.24 20.77 42.45 25.27 51.24-20.77 38.09 22.68-139.35 56.49zm-29.13-22 29.47 17.55 130.05-52.72-29.47-17.55-51.24 20.77-51.07-30.41 51.24-20.77-29.85-17.77-130.05 52.72 29.85 17.77 55.4-22.46 51.07 30.41-55.4 22.46z" class="st0"/><path d="m619.44 379.76 90.08 53.64-26.8 10.86-55.92-33.29-24.99 10.13 47.52 28.29-27.16 11.01-47.52-28.29-28.61 11.6 58.02 34.54-27.16 11.01-92.18-54.88 134.72-54.62z"/><path d="m576.75 491.47-96.5-57.45 139.35-56.49 94.4 56.2-31.45 12.75-55.92-33.29-20.33 8.24 47.52 28.29-31.81 12.89-47.52-28.29-23.95 9.71 58.02 34.54-31.81 12.9zm-87.53-56.77 87.87 52.32 22.51-9.12-58.02-34.54 33.26-13.48 47.52 28.29 22.5-9.12-47.52-28.29 29.64-12.01 55.92 33.29 22.14-8.98-85.77-51.07-130.05 52.71z" class="st0"/><path d="m739.68 451.35 36.83 21.93-35.6 36.97c-4.92 4.86-11.14 9.67-16.8 14.64l.96.57c11.19-1.67 21.99-3.76 32.45-5.32l79.88-10.6 37.03 22.04-134.7 54.6-31.11-18.52 46.17-18.71c13.4-5.43 36.17-11.99 51.1-16.32l-.76-.45-44.06 6.02-68.33 8.6-18.7-11.14 29.97-31.44 20.78-19.88-.76-.46c-11.5 6.38-28.92 16.12-42.32 21.55l-46.17 18.71L605 505.96l134.68-54.61z"/><path d="m739.55 588.4-35.42-21.09 49.9-20.23c7.77-3.15 18.74-6.69 29.44-9.95l-22.14 3.02-69.04 8.69-21.45-12.77 31.7-33.25 11.91-11.4c-10.17 5.55-22.21 11.87-32.02 15.84l-47.09 19.09-34.85-20.75 139.35-56.49 39.85 23.73-37.34 38.78c-3.27 3.23-7.1 6.44-10.8 9.55-.6.5-1.21 1.01-1.82 1.53 4-.64 7.96-1.32 11.82-1.98 5.41-.93 10.52-1.8 15.67-2.57l80.6-10.7 41.08 24.46-139.35 56.49zm-26.46-20.41 26.8 15.95 130.05-52.72-32.97-19.63-79.19 10.51c-5.07.76-10.16 1.63-15.55 2.55-5.47.94-11.14 1.91-16.86 2.76l-.71.11-3.93-2.34 2.07-1.81c2.02-1.78 4.14-3.55 6.19-5.27 3.81-3.2 7.41-6.21 10.53-9.29l33.81-35.12-33.82-20.13-130.05 52.72 26.22 15.61 45.25-18.34c12.88-5.22 29.82-14.63 41.04-20.85l2.07-1.15 4.01 2.39-22.67 21.7-28.17 29.56 15.96 9.5 67.65-8.51 44.73-6.11 5.32 3.17-5.89 1.71c-14.56 4.23-36.57 10.61-49.44 15.83l-42.45 17.2z" class="st0"/><path d="m907.06 551.01 90.08 53.63-26.8 10.86-55.92-33.29-24.99 10.13 47.52 28.29-27.16 11.01-47.52-28.29-28.61 11.59 58.02 34.54-27.16 11.01-92.18-54.89 134.72-54.59z"/><path d="m864.37 662.72-96.5-57.45 139.35-56.49 94.4 56.2-31.45 12.75-55.92-33.29-20.33 8.24 47.52 28.29-31.81 12.89-47.52-28.29-23.95 9.71 58.02 34.54-31.81 12.9zm-87.53-56.77 87.87 52.32 22.5-9.12-58.01-34.55 33.26-13.48 47.52 28.29 22.51-9.12L884.96 592l29.64-12.01 55.92 33.29 22.14-8.98-85.77-51.07-130.05 52.72z" class="st0"/><path d="m350.26 225.31-38.36-22.84 26.8-10.86 111.08 66.13-26.8 10.86-38.55-22.95-107.91 43.74-34.16-20.34 107.9-43.74z"/><path d="m276.34 291.61-38.48-22.91 107.91-43.74-38.36-22.84 31.45-12.75 115.39 68.7-31.45 12.75-38.55-22.95-107.91 43.74zm-29.51-22.22 29.85 17.77 107.91-43.74 38.55 22.95 22.14-8.98-106.76-63.57-22.14 8.98 38.36 22.84-107.91 43.75z" class="st0"/><path d="m471.72 270.81 34.16 20.34-51.24 20.77 46.76 27.84 51.24-20.77 33.78 20.11-134.7 54.6-33.78-20.11 55.4-22.46-46.76-27.84-55.4 22.46-34.16-20.34 134.7-54.6z"/><path d="m451.55 395.93-38.09-22.68 55.4-22.46-42.45-25.27-55.4 22.46-38.48-22.91 139.35-56.49 38.48 22.91-51.24 20.77 42.45 25.27 51.24-20.77 38.09 22.68-139.35 56.49zm-29.13-22 29.47 17.55 130.05-52.72-29.47-17.55-51.24 20.77-51.07-30.41 51.24-20.77-29.85-17.77-130.05 52.72 29.85 17.77 55.4-22.46 51.07 30.41-55.4 22.46z" class="st0"/><path d="m619.44 358.76 90.08 53.64-26.8 10.86-55.92-33.29-24.99 10.13 47.52 28.29-27.16 11.01-47.52-28.29-28.61 11.6 58.02 34.54-27.16 11.01-92.18-54.88 134.72-54.62z"/><path d="m576.75 470.47-96.5-57.45 139.35-56.49 94.4 56.2-31.45 12.75-55.92-33.29-20.33 8.24 47.52 28.29-31.81 12.89-47.52-28.29-23.95 9.71 58.02 34.54-31.81 12.9zm-87.53-56.77 87.87 52.32 22.51-9.12-58.02-34.54 33.26-13.48 47.52 28.29 22.5-9.12-47.52-28.29 29.64-12.01 55.92 33.29 22.14-8.98-85.77-51.07-130.05 52.71z" class="st0"/><path d="m739.68 430.35 36.83 21.93-35.6 36.97c-4.92 4.86-11.14 9.67-16.8 14.64l.96.57c11.19-1.67 21.99-3.76 32.45-5.32l79.88-10.6 37.03 22.04-134.7 54.6-31.11-18.52 46.17-18.71c13.4-5.43 36.17-11.99 51.1-16.32l-.76-.45-44.06 6.02-68.33 8.6-18.7-11.14 29.97-31.44 20.78-19.88-.76-.46c-11.5 6.38-28.92 16.12-42.32 21.55l-46.17 18.71L605 484.96l134.68-54.61z"/><path d="m739.55 567.4-35.42-21.09 49.9-20.23c7.77-3.15 18.74-6.69 29.44-9.95l-22.14 3.02-69.04 8.69-21.45-12.77 31.7-33.25 11.91-11.4c-10.17 5.55-22.21 11.87-32.02 15.84l-47.09 19.09-34.85-20.75 139.35-56.49 39.85 23.73-37.34 38.78c-3.27 3.23-7.1 6.44-10.8 9.55-.6.5-1.21 1.01-1.82 1.53 4-.64 7.96-1.32 11.82-1.98 5.41-.93 10.52-1.8 15.67-2.57l80.6-10.7 41.08 24.46-139.35 56.49zm-26.46-20.41 26.8 15.95 130.05-52.72-32.97-19.63-79.19 10.51c-5.07.76-10.16 1.63-15.55 2.55-5.47.94-11.14 1.91-16.86 2.76l-.71.11-3.93-2.34 2.07-1.81c2.02-1.78 4.14-3.55 6.19-5.27 3.81-3.2 7.41-6.21 10.53-9.29l33.81-35.12-33.82-20.13-130.05 52.72 26.22 15.61 45.25-18.34c12.88-5.22 29.82-14.63 41.04-20.85l2.07-1.15 4.01 2.39-22.67 21.7-28.17 29.56 15.96 9.5 67.65-8.51 44.73-6.11 5.32 3.17-5.89 1.71c-14.56 4.23-36.57 10.61-49.44 15.83l-42.45 17.2z" class="st0"/><path d="m907.06 530.01 90.08 53.63-26.8 10.86-55.92-33.29-24.99 10.13 47.52 28.29-27.16 11.01-47.52-28.29-28.61 11.59 58.02 34.54-27.16 11.01-92.18-54.89 134.72-54.59z"/><path d="m864.37 641.72-96.5-57.45 139.35-56.49 94.4 56.2-31.45 12.75-55.92-33.29-20.33 8.24 47.52 28.29-31.81 12.89-47.52-28.29-23.95 9.71 58.02 34.54-31.81 12.9zm-87.53-56.77 87.87 52.32 22.5-9.12-58.01-34.55 33.26-13.48 47.52 28.29 22.51-9.12L884.96 571l29.64-12.01 55.92 33.29 22.14-8.98-85.77-51.07-130.05 52.72z" class="st0"/><path d="m350.26 204.31-38.36-22.84 26.8-10.86 111.08 66.13-26.8 10.86-38.55-22.95-107.91 43.74-34.16-20.34 107.9-43.74z"/><path d="m276.34 270.61-38.48-22.91 107.91-43.74-38.36-22.84 31.45-12.75 115.39 68.7-31.45 12.75-38.55-22.95-107.91 43.74zm-29.51-22.22 29.85 17.77 107.91-43.74 38.55 22.95 22.14-8.98-106.76-63.57-22.14 8.98 38.36 22.84-107.91 43.75z" class="st0"/><path d="m471.72 249.81 34.16 20.34-51.24 20.77 46.76 27.84 51.24-20.77 33.78 20.11-134.7 54.6-33.78-20.11 55.4-22.46-46.76-27.84-55.4 22.46-34.16-20.34 134.7-54.6z"/><path d="m451.55 374.93-38.09-22.68 55.4-22.46-42.45-25.27-55.4 22.46-38.48-22.91 139.35-56.49 38.48 22.91-51.24 20.77 42.45 25.27 51.24-20.77 38.09 22.68-139.35 56.49zm-29.13-22 29.47 17.55 130.05-52.72-29.47-17.55-51.24 20.77-51.07-30.41 51.24-20.77-29.85-17.77-130.05 52.72 29.85 17.77 55.4-22.46 51.07 30.41-55.4 22.46z" class="st0"/><path d="m619.44 337.76 90.08 53.64-26.8 10.86-55.92-33.29-24.99 10.13 47.52 28.29-27.16 11.01-47.52-28.29-28.61 11.6 58.02 34.54-27.16 11.01-92.18-54.88 134.72-54.62z"/><path d="m576.75 449.47-96.5-57.45 139.35-56.49 94.4 56.2-31.45 12.75-55.92-33.29-20.33 8.24 47.52 28.29-31.81 12.89-47.52-28.29-23.95 9.71 58.02 34.54-31.81 12.9zm-87.53-56.77 87.87 52.32 22.51-9.12-58.02-34.54 33.26-13.48 47.52 28.29 22.5-9.12-47.52-28.29 29.64-12.01 55.92 33.29 22.14-8.98-85.77-51.07-130.05 52.71z" class="st0"/><path d="m739.68 409.35 36.83 21.93-35.6 36.97c-4.92 4.86-11.14 9.67-16.8 14.64l.96.57c11.19-1.67 21.99-3.76 32.45-5.32l79.88-10.6 37.03 22.04-134.7 54.6-31.11-18.52 46.17-18.71c13.4-5.43 36.17-11.99 51.1-16.32l-.76-.45-44.06 6.02-68.33 8.6-18.7-11.14 29.97-31.44 20.78-19.88-.76-.46c-11.5 6.38-28.92 16.12-42.32 21.55l-46.17 18.71L605 463.96l134.68-54.61z"/><path d="m739.55 546.4-35.42-21.09 49.9-20.23c7.77-3.15 18.74-6.69 29.44-9.95l-22.14 3.02-69.04 8.69-21.45-12.77 31.7-33.25 11.91-11.4c-10.17 5.55-22.21 11.87-32.02 15.84l-47.09 19.09-34.85-20.75 139.35-56.49 39.85 23.73-37.34 38.78c-3.27 3.23-7.1 6.44-10.8 9.55-.6.5-1.21 1.01-1.82 1.53 4-.64 7.96-1.32 11.82-1.98 5.41-.93 10.52-1.8 15.67-2.57l80.6-10.7 41.08 24.46-139.35 56.49zm-26.46-20.41 26.8 15.95 130.05-52.72-32.97-19.63-79.19 10.51c-5.07.76-10.16 1.63-15.55 2.55-5.47.94-11.14 1.91-16.86 2.76l-.71.11-3.93-2.34 2.07-1.81c2.02-1.78 4.14-3.55 6.19-5.27 3.81-3.2 7.41-6.21 10.53-9.29l33.81-35.12-33.82-20.13-130.05 52.72 26.22 15.61 45.25-18.34c12.88-5.22 29.82-14.63 41.04-20.85l2.07-1.15 4.01 2.39-22.67 21.7-28.17 29.56 15.96 9.5 67.65-8.51 44.73-6.11 5.32 3.17-5.89 1.71c-14.56 4.23-36.57 10.61-49.44 15.83l-42.45 17.2z" class="st0"/><path d="m907.06 509.01 90.08 53.63-26.8 10.86-55.92-33.29-24.99 10.13 47.52 28.29-27.16 11.01-47.52-28.29-28.61 11.59 58.02 34.54-27.16 11.01-92.18-54.89 134.72-54.59z"/><path d="m864.37 620.72-96.5-57.45 139.35-56.49 94.4 56.2-31.45 12.75-55.92-33.29-20.33 8.24 47.52 28.29-31.81 12.89-47.52-28.29-23.95 9.71 58.02 34.54-31.81 12.9zm-87.53-56.77 87.87 52.32 22.5-9.12-58.01-34.55 33.26-13.48 47.52 28.29 22.51-9.12L884.96 550l29.64-12.01 55.92 33.29 22.14-8.98-85.77-51.07-130.05 52.72z" class="st0"/><path d="m350.26 183.31-38.36-22.84 26.8-10.86 111.08 66.13-26.8 10.86-38.55-22.95-107.91 43.74-34.16-20.34 107.9-43.74z"/><path d="m276.34 249.61-38.48-22.91 107.91-43.74-38.36-22.84 31.45-12.75 115.39 68.7-31.45 12.75-38.55-22.95-107.91 43.74zm-29.51-22.22 29.85 17.77 107.91-43.74 38.55 22.95 22.14-8.98-106.76-63.57-22.14 8.98 38.36 22.84-107.91 43.75z" class="st0"/><path d="m471.72 228.81 34.16 20.34-51.24 20.77 46.76 27.84 51.24-20.77 33.78 20.11-134.7 54.6-33.78-20.11 55.4-22.46-46.76-27.84-55.4 22.46-34.16-20.34 134.7-54.6z"/><path d="m451.55 353.93-38.09-22.68 55.4-22.46-42.45-25.27-55.4 22.46-38.48-22.91 139.35-56.49 38.48 22.91-51.24 20.77 42.45 25.27 51.24-20.77 38.09 22.68-139.35 56.49zm-29.13-22 29.47 17.55 130.05-52.72-29.47-17.55-51.24 20.77-51.07-30.41 51.24-20.77-29.85-17.77-130.05 52.72 29.85 17.77 55.4-22.46 51.07 30.41-55.4 22.46z" class="st0"/><path d="m619.44 316.76 90.08 53.64-26.8 10.86-55.92-33.29-24.99 10.13 47.52 28.29-27.16 11.01-47.52-28.29-28.61 11.6 58.02 34.54-27.16 11.01-92.18-54.88 134.72-54.62z"/><path d="m576.75 428.47-96.5-57.45 139.35-56.49 94.4 56.2-31.45 12.75-55.92-33.29-20.33 8.24 47.52 28.29-31.81 12.89-47.52-28.29-23.95 9.71 58.02 34.54-31.81 12.9zm-87.53-56.77 87.87 52.32 22.51-9.12-58.02-34.54 33.26-13.48 47.52 28.29 22.5-9.12-47.52-28.29 29.64-12.01 55.92 33.29 22.14-8.98-85.77-51.07-130.05 52.71z" class="st0"/><path d="m739.68 388.35 36.83 21.93-35.6 36.97c-4.92 4.86-11.14 9.67-16.8 14.64l.96.57c11.19-1.67 21.99-3.76 32.45-5.32l79.88-10.6 37.03 22.04-134.7 54.6-31.11-18.52 46.17-18.71c13.4-5.43 36.17-11.99 51.1-16.32l-.76-.45-44.06 6.02-68.33 8.6-18.7-11.14 29.97-31.44 20.78-19.88-.76-.46c-11.5 6.38-28.92 16.12-42.32 21.55l-46.17 18.71L605 442.96l134.68-54.61z"/><path d="m739.55 525.4-35.42-21.09 49.9-20.23c7.77-3.15 18.74-6.69 29.44-9.95l-22.14 3.02-69.04 8.69-21.45-12.77 31.7-33.25 11.91-11.4c-10.17 5.55-22.21 11.87-32.02 15.84l-47.09 19.09-34.85-20.75 139.35-56.49 39.85 23.73-37.34 38.78c-3.27 3.23-7.1 6.44-10.8 9.55-.6.5-1.21 1.01-1.82 1.53 4-.64 7.96-1.32 11.82-1.98 5.41-.93 10.52-1.8 15.67-2.57l80.6-10.7 41.08 24.46-139.35 56.49zm-26.46-20.41 26.8 15.95 130.05-52.72-32.97-19.63-79.19 10.51c-5.07.76-10.16 1.63-15.55 2.55-5.47.94-11.14 1.91-16.86 2.76l-.71.11-3.93-2.34 2.07-1.81c2.02-1.78 4.14-3.55 6.19-5.27 3.81-3.2 7.41-6.21 10.53-9.29l33.81-35.12-33.82-20.13-130.05 52.72 26.22 15.61 45.25-18.34c12.88-5.22 29.82-14.63 41.04-20.85l2.07-1.15 4.01 2.39-22.67 21.7-28.17 29.56 15.96 9.5 67.65-8.51 44.73-6.11 5.32 3.17-5.89 1.71c-14.56 4.23-36.57 10.61-49.44 15.83l-42.45 17.2z" class="st0"/><path d="m907.06 488.01 90.08 53.63-26.8 10.86-55.92-33.29-24.99 10.13 47.52 28.29-27.16 11.01-47.52-28.29-28.61 11.59 58.02 34.54-27.16 11.01-92.18-54.89 134.72-54.59z"/><path d="m864.37 599.72-96.5-57.45 139.35-56.49 94.4 56.2-31.45 12.75-55.92-33.29-20.33 8.24 47.52 28.29-31.81 12.89-47.52-28.29-23.95 9.71 58.02 34.54-31.81 12.9zm-87.53-56.77 87.87 52.32 22.5-9.12-58.01-34.55 33.26-13.48 47.52 28.29 22.51-9.12L884.96 529l29.64-12.01 55.92 33.29 22.14-8.98-85.77-51.07-130.05 52.72z" class="st0"/><path d="m350.26 162.31-38.36-22.84 26.8-10.86 111.08 66.13-26.8 10.86-38.55-22.95-107.91 43.74-34.16-20.34 107.9-43.74z"/><path d="m276.34 228.61-38.48-22.91 107.91-43.74-38.36-22.84 31.45-12.75 115.39 68.7-31.45 12.75-38.55-22.95-107.91 43.74zm-29.51-22.22 29.85 17.77 107.91-43.74 38.55 22.95 22.14-8.98-106.76-63.57-22.14 8.98 38.36 22.84-107.91 43.75z" class="st0"/><path d="m471.72 207.81 34.16 20.34-51.24 20.77 46.76 27.84 51.24-20.77 33.78 20.11-134.7 54.6-33.78-20.11 55.4-22.46-46.76-27.84-55.4 22.46-34.16-20.34 134.7-54.6z"/><path d="m451.55 332.93-38.09-22.68 55.4-22.46-42.45-25.27-55.4 22.46-38.48-22.91 139.35-56.49 38.48 22.91-51.24 20.77 42.45 25.27 51.24-20.77 38.09 22.68-139.35 56.49zm-29.13-22 29.47 17.55 130.05-52.72-29.47-17.55-51.24 20.77-51.07-30.41 51.24-20.77-29.85-17.77-130.05 52.72 29.85 17.77 55.4-22.46 51.07 30.41-55.4 22.46z" class="st0"/><path d="m619.44 295.76 90.08 53.64-26.8 10.86-55.92-33.29-24.99 10.13 47.52 28.29-27.16 11.01-47.52-28.29-28.61 11.6 58.02 34.54-27.16 11.01-92.18-54.88 134.72-54.62z"/><path d="m576.75 407.47-96.5-57.45 139.35-56.49 94.4 56.2-31.45 12.75-55.92-33.29-20.33 8.24 47.52 28.29-31.81 12.89-47.52-28.29-23.95 9.71 58.02 34.54-31.81 12.9zm-87.53-56.77 87.87 52.32 22.51-9.12-58.02-34.54 33.26-13.48 47.52 28.29 22.5-9.12-47.52-28.29 29.64-12.01 55.92 33.29 22.14-8.98-85.77-51.07-130.05 52.71z" class="st0"/><path d="m739.68 367.35 36.83 21.93-35.6 36.97c-4.92 4.86-11.14 9.67-16.8 14.64l.96.57c11.19-1.67 21.99-3.76 32.45-5.32l79.88-10.6 37.03 22.04-134.7 54.6-31.11-18.52 46.17-18.71c13.4-5.43 36.17-11.99 51.1-16.32l-.76-.45-44.06 6.02-68.33 8.6-18.7-11.14 29.97-31.44 20.78-19.88-.76-.46c-11.5 6.38-28.92 16.12-42.32 21.55l-46.17 18.71L605 421.96l134.68-54.61z"/><path d="m739.55 504.4-35.42-21.09 49.9-20.23c7.77-3.15 18.74-6.69 29.44-9.95l-22.14 3.02-69.04 8.69-21.45-12.77 31.7-33.25 11.91-11.4c-10.17 5.55-22.21 11.87-32.02 15.84l-47.09 19.09-34.85-20.75 139.35-56.49 39.85 23.73-37.34 38.78c-3.27 3.23-7.1 6.44-10.8 9.55-.6.5-1.21 1.01-1.82 1.53 4-.64 7.96-1.32 11.82-1.98 5.41-.93 10.52-1.8 15.67-2.57l80.6-10.7 41.08 24.46-139.35 56.49zm-26.46-20.41 26.8 15.95 130.05-52.72-32.97-19.63-79.19 10.51c-5.07.76-10.16 1.63-15.55 2.55-5.47.94-11.14 1.91-16.86 2.76l-.71.11-3.93-2.34 2.07-1.81c2.02-1.78 4.14-3.55 6.19-5.27 3.81-3.2 7.41-6.21 10.53-9.29l33.81-35.12-33.82-20.13-130.05 52.72 26.22 15.61 45.25-18.34c12.88-5.22 29.82-14.63 41.04-20.85l2.07-1.15 4.01 2.39-22.67 21.7-28.17 29.56 15.96 9.5 67.65-8.51 44.73-6.11 5.32 3.17-5.89 1.71c-14.56 4.23-36.57 10.61-49.44 15.83l-42.45 17.2z" class="st0"/><path d="m907.06 467.01 90.08 53.63-26.8 10.86-55.92-33.29-24.99 10.13 47.52 28.29-27.16 11.01-47.52-28.29-28.61 11.59 58.02 34.54-27.16 11.01-92.18-54.89 134.72-54.59z"/><path d="m864.37 578.72-96.5-57.45 139.35-56.49 94.4 56.2-31.45 12.75-55.92-33.29-20.33 8.24 47.52 28.29-31.81 12.89-47.52-28.29-23.95 9.71 58.02 34.54-31.81 12.9zm-87.53-56.77 87.87 52.32 22.5-9.12-58.01-34.55 33.26-13.48 47.52 28.29 22.51-9.12L884.96 508l29.64-12.01 55.92 33.29 22.14-8.98-85.77-51.07-130.05 52.72z" class="st0"/><path d="m350.26 141.31-38.36-22.84 26.8-10.86 111.08 66.13-26.8 10.86-38.55-22.95-107.91 43.74-34.16-20.34 107.9-43.74z"/><path d="m276.34 207.61-38.48-22.91 107.91-43.74-38.36-22.84 31.45-12.75 115.39 68.7-31.45 12.75-38.55-22.95-107.91 43.74zm-29.51-22.22 29.85 17.77 107.91-43.74 38.55 22.95 22.14-8.98-106.76-63.57-22.14 8.98 38.36 22.84-107.91 43.75z" class="st0"/><path d="m471.72 186.81 34.16 20.34-51.24 20.77 46.76 27.84 51.24-20.77 33.78 20.11-134.7 54.6-33.78-20.11 55.4-22.46-46.76-27.84-55.4 22.46-34.16-20.34 134.7-54.6z"/><path d="m451.55 311.93-38.09-22.68 55.4-22.46-42.45-25.27-55.4 22.46-38.48-22.91 139.35-56.49 38.48 22.91-51.24 20.77 42.45 25.27 51.24-20.77 38.09 22.68-139.35 56.49zm-29.13-22 29.47 17.55 130.05-52.72-29.47-17.55-51.24 20.77-51.07-30.41 51.24-20.77-29.85-17.77-130.05 52.72 29.85 17.77 55.4-22.46 51.07 30.41-55.4 22.46z" class="st0"/><path d="m619.44 274.76 90.08 53.64-26.8 10.86-55.92-33.29-24.99 10.13 47.52 28.29-27.16 11.01-47.52-28.29-28.61 11.6 58.02 34.54-27.16 11.01-92.18-54.88 134.72-54.62z"/><path d="m576.75 386.47-96.5-57.45 139.35-56.49 94.4 56.2-31.45 12.75-55.92-33.29-20.33 8.24 47.52 28.29-31.81 12.89-47.52-28.29-23.95 9.71 58.02 34.54-31.81 12.9zm-87.53-56.77 87.87 52.32 22.51-9.12-58.02-34.54 33.26-13.48 47.52 28.29 22.5-9.12-47.52-28.29 29.64-12.01 55.92 33.29 22.14-8.98-85.77-51.07-130.05 52.71z" class="st0"/><path d="m739.68 346.35 36.83 21.93-35.6 36.97c-4.92 4.86-11.14 9.67-16.8 14.64l.96.57c11.19-1.67 21.99-3.76 32.45-5.32l79.88-10.6 37.03 22.04-134.7 54.6-31.11-18.52 46.17-18.71c13.4-5.43 36.17-11.99 51.1-16.32l-.76-.45-44.06 6.02-68.33 8.6-18.7-11.14 29.97-31.44 20.78-19.88-.76-.46c-11.5 6.38-28.92 16.12-42.32 21.55l-46.17 18.71L605 400.96l134.68-54.61z"/><path d="m739.55 483.4-35.42-21.09 49.9-20.23c7.77-3.15 18.74-6.69 29.44-9.95l-22.14 3.02-69.04 8.69-21.45-12.77 31.7-33.25 11.91-11.4c-10.17 5.55-22.21 11.87-32.02 15.84l-47.09 19.09-34.85-20.75 139.35-56.49 39.85 23.73-37.34 38.78c-3.27 3.23-7.1 6.44-10.8 9.55-.6.5-1.21 1.01-1.82 1.53 4-.64 7.96-1.32 11.82-1.98 5.41-.93 10.52-1.8 15.67-2.57l80.6-10.7 41.08 24.46-139.35 56.49zm-26.46-20.41 26.8 15.95 130.05-52.72-32.97-19.63-79.19 10.51c-5.07.76-10.16 1.63-15.55 2.55-5.47.94-11.14 1.91-16.86 2.76l-.71.11-3.93-2.34 2.07-1.81c2.02-1.78 4.14-3.55 6.19-5.27 3.81-3.2 7.41-6.21 10.53-9.29l33.81-35.12-33.82-20.13-130.05 52.72 26.22 15.61 45.25-18.34c12.88-5.22 29.82-14.63 41.04-20.85l2.07-1.15 4.01 2.39-22.67 21.7-28.17 29.56 15.96 9.5 67.65-8.51 44.73-6.11 5.32 3.17-5.89 1.71c-14.56 4.23-36.57 10.61-49.44 15.83l-42.45 17.2z" class="st0"/><path d="m907.06 446.01 90.08 53.63-26.8 10.86-55.92-33.29-24.99 10.13 47.52 28.29-27.16 11.01-47.52-28.29-28.61 11.59 58.02 34.54-27.16 11.01-92.18-54.89 134.72-54.59z"/><path d="m864.37 557.72-96.5-57.45 139.35-56.49 94.4 56.2-31.45 12.75-55.92-33.29-20.33 8.24 47.52 28.29-31.81 12.89-47.52-28.29-23.95 9.71 58.02 34.54-31.81 12.9zm-87.53-56.77 87.87 52.32 22.5-9.12-58.01-34.55 33.26-13.48 47.52 28.29 22.51-9.12L884.96 487l29.64-12.01 55.92 33.29 22.14-8.98-85.77-51.07-130.05 52.72z" class="st0"/><path d="M350.26 120.31 311.9 97.47l26.8-10.86 111.08 66.13-26.8 10.86-38.55-22.95-107.91 43.74-34.16-20.34 107.9-43.74z"/><path d="m276.34 186.61-38.48-22.91 107.91-43.74-38.36-22.84 31.45-12.75 115.39 68.7-31.45 12.75-38.55-22.95-107.91 43.74zm-29.51-22.22 29.85 17.77 107.91-43.74 38.55 22.95 22.14-8.98-106.76-63.56-22.14 8.98 38.36 22.84-107.91 43.74z" class="st0"/><path d="m471.72 165.81 34.16 20.34-51.24 20.77 46.76 27.84 51.24-20.77 33.78 20.11-134.7 54.6-33.78-20.11 55.4-22.46-46.76-27.84-55.4 22.46-34.16-20.34 134.7-54.6z"/><path d="m451.55 290.93-38.09-22.68 55.4-22.46-42.45-25.27-55.4 22.46-38.48-22.91 139.35-56.49 38.48 22.91-51.24 20.77 42.45 25.27 51.24-20.77 38.09 22.68-139.35 56.49zm-29.13-22 29.47 17.55 130.05-52.72-29.47-17.55-51.24 20.77-51.07-30.41 51.24-20.77-29.85-17.77-130.05 52.72 29.85 17.77 55.4-22.46 51.07 30.41-55.4 22.46z" class="st0"/><path d="m619.44 253.76 90.08 53.64-26.8 10.86-55.92-33.29-24.99 10.13 47.52 28.29-27.16 11.01-47.52-28.29-28.61 11.6 58.02 34.54-27.16 11.01-92.18-54.88 134.72-54.62z"/><path d="m576.75 365.47-96.5-57.45 139.35-56.49 94.4 56.2-31.45 12.75-55.92-33.29-20.33 8.24 47.52 28.29-31.81 12.89-47.52-28.29-23.95 9.71 58.02 34.54-31.81 12.9zm-87.53-56.77 87.87 52.32 22.51-9.12-58.02-34.54 33.26-13.48 47.52 28.29 22.5-9.12-47.52-28.29 29.64-12.01 55.92 33.29 22.14-8.98-85.77-51.07-130.05 52.71z" class="st0"/><path d="m739.68 325.35 36.83 21.93-35.6 36.97c-4.92 4.86-11.14 9.67-16.8 14.64l.96.57c11.19-1.67 21.99-3.76 32.45-5.32l79.88-10.6 37.03 22.04-134.7 54.6-31.11-18.52 46.17-18.71c13.4-5.43 36.17-11.99 51.1-16.32l-.76-.45-44.06 6.02-68.33 8.6-18.7-11.14 29.97-31.44 20.78-19.88-.76-.46c-11.5 6.38-28.92 16.12-42.32 21.55l-46.17 18.71L605 379.96l134.68-54.61z"/><path d="m739.55 462.4-35.42-21.09 49.9-20.23c7.77-3.15 18.74-6.69 29.44-9.95l-22.14 3.02-69.04 8.69-21.45-12.77 31.7-33.25 11.91-11.4c-10.17 5.55-22.21 11.87-32.02 15.84l-47.09 19.09-34.85-20.75 139.35-56.49 39.85 23.73-37.34 38.78c-3.27 3.23-7.1 6.44-10.8 9.55-.6.5-1.21 1.01-1.82 1.53 4-.64 7.96-1.32 11.82-1.98 5.41-.93 10.52-1.8 15.67-2.57l80.6-10.7 41.08 24.46-139.35 56.49zm-26.46-20.41 26.8 15.95 130.05-52.72-32.97-19.63-79.19 10.51c-5.07.76-10.16 1.63-15.55 2.55-5.47.94-11.14 1.91-16.86 2.76l-.71.11-3.93-2.34 2.07-1.81c2.02-1.78 4.14-3.55 6.19-5.27 3.81-3.2 7.41-6.21 10.53-9.29l33.81-35.12-33.82-20.13-130.05 52.72 26.22 15.61 45.25-18.34c12.88-5.22 29.82-14.63 41.04-20.85l2.07-1.15 4.01 2.39-22.67 21.7-28.17 29.56 15.96 9.5 67.65-8.51 44.73-6.11 5.32 3.17-5.89 1.71c-14.56 4.23-36.57 10.61-49.44 15.83l-42.45 17.2z" class="st0"/><path d="m907.06 425.01 90.08 53.63-26.8 10.86-55.92-33.29-24.99 10.13 47.52 28.29-27.16 11.01-47.52-28.29-28.61 11.59 58.02 34.54-27.16 11.01-92.18-54.89 134.72-54.59z"/><path d="m864.37 536.72-96.5-57.45 139.35-56.49 94.4 56.2-31.45 12.75-55.92-33.29-20.33 8.24 47.52 28.29-31.81 12.89-47.52-28.29-23.95 9.71 58.02 34.54-31.81 12.9zm-87.53-56.77 87.87 52.32 22.5-9.12-58.01-34.55 33.26-13.48 47.52 28.29 22.51-9.12L884.96 466l29.64-12.01 55.92 33.29 22.14-8.98-85.77-51.07-130.05 52.72z" class="st0"/><path d="M350.26 99.31 311.9 76.47l26.8-10.86 111.08 66.13-26.8 10.86-38.55-22.95-107.91 43.74-34.16-20.34 107.9-43.74z"/><path d="m276.34 165.61-38.48-22.91 107.91-43.74-38.36-22.84 31.45-12.75 115.39 68.7-31.45 12.75-38.55-22.95-107.91 43.74zm-29.51-22.22 29.85 17.77 107.91-43.74 38.55 22.95 22.14-8.98-106.76-63.56-22.14 8.98 38.36 22.84-107.91 43.74z" class="st0"/><path d="m471.72 144.81 34.16 20.34-51.24 20.77 46.76 27.84 51.24-20.77 33.78 20.11-134.7 54.6-33.78-20.11 55.4-22.46-46.76-27.84-55.4 22.46-34.16-20.34 134.7-54.6z"/><path d="m451.55 269.93-38.09-22.68 55.4-22.46-42.45-25.27-55.4 22.46-38.48-22.91 139.35-56.49 38.48 22.91-51.24 20.77 42.45 25.27 51.24-20.77 38.09 22.68-139.35 56.49zm-29.13-22 29.47 17.55 130.05-52.72-29.47-17.55-51.24 20.77-51.07-30.41 51.24-20.77-29.85-17.77-130.05 52.72 29.85 17.77 55.4-22.46 51.07 30.41-55.4 22.46z" class="st0"/><path d="m619.44 232.76 90.08 53.64-26.8 10.86-55.92-33.29-24.99 10.13 47.52 28.29-27.16 11.01-47.52-28.29-28.61 11.6 58.02 34.54-27.16 11.01-92.18-54.88 134.72-54.62z"/><path d="m576.75 344.47-96.5-57.45 139.35-56.49 94.4 56.2-31.45 12.75-55.92-33.29-20.33 8.24 47.52 28.29-31.81 12.89-47.52-28.29-23.95 9.71 58.02 34.54-31.81 12.9zm-87.53-56.77 87.87 52.32 22.51-9.12-58.02-34.54 33.26-13.48 47.52 28.29 22.5-9.12-47.52-28.29 29.64-12.01 55.92 33.29 22.14-8.98-85.77-51.07-130.05 52.71z" class="st0"/><path d="m739.68 304.35 36.83 21.93-35.6 36.97c-4.92 4.86-11.14 9.67-16.8 14.64l.96.57c11.19-1.67 21.99-3.76 32.45-5.32l79.88-10.6 37.03 22.04-134.7 54.6-31.11-18.52 46.17-18.71c13.4-5.43 36.17-11.99 51.1-16.32l-.76-.45-44.06 6.02-68.33 8.6-18.7-11.14 29.97-31.44 20.78-19.88-.76-.46c-11.5 6.38-28.92 16.12-42.32 21.55l-46.17 18.71L605 358.96l134.68-54.61z"/><path d="m739.55 441.4-35.42-21.09 49.9-20.23c7.77-3.15 18.74-6.69 29.44-9.95l-22.14 3.02-69.04 8.69-21.45-12.77 31.7-33.25 11.91-11.4c-10.17 5.55-22.21 11.87-32.02 15.84l-47.09 19.09-34.85-20.75 139.35-56.49 39.85 23.73-37.34 38.78c-3.27 3.23-7.1 6.44-10.8 9.55-.6.5-1.21 1.01-1.82 1.53 4-.64 7.96-1.32 11.82-1.98 5.41-.93 10.52-1.8 15.67-2.57l80.6-10.7 41.08 24.46-139.35 56.49zm-26.46-20.41 26.8 15.95 130.05-52.72-32.97-19.63-79.19 10.51c-5.07.76-10.16 1.63-15.55 2.55-5.47.94-11.14 1.91-16.86 2.76l-.71.11-3.93-2.34 2.07-1.81c2.02-1.78 4.14-3.55 6.19-5.27 3.81-3.2 7.41-6.21 10.53-9.29l33.81-35.12-33.82-20.13-130.05 52.72 26.22 15.61 45.25-18.34c12.88-5.22 29.82-14.63 41.04-20.85l2.07-1.15 4.01 2.39-22.67 21.7-28.17 29.56 15.96 9.5 67.65-8.51 44.73-6.11 5.32 3.17-5.89 1.71c-14.56 4.23-36.57 10.61-49.44 15.83l-42.45 17.2z" class="st0"/><path d="m907.06 404.01 90.08 53.63-26.8 10.86-55.92-33.29-24.99 10.13 47.52 28.29-27.16 11.01-47.52-28.29-28.61 11.59 58.02 34.54-27.16 11.01-92.18-54.89 134.72-54.59z"/><path d="m864.37 515.72-96.5-57.45 139.35-56.49 94.4 56.2-31.45 12.75-55.92-33.29-20.33 8.24 47.52 28.29-31.81 12.89-47.52-28.29-23.95 9.71 58.02 34.54-31.81 12.9zm-87.53-56.77 87.87 52.32 22.5-9.12-58.01-34.55 33.26-13.48 47.52 28.29 22.51-9.12L884.96 445l29.64-12.01 55.92 33.29 22.14-8.98-85.77-51.07-130.05 52.72z" class="st0"/><path d="M350.26 78.31 311.9 55.47l26.8-10.86 111.08 66.13-26.8 10.86-38.55-22.95-107.91 43.74-34.16-20.34 107.9-43.74z"/><path d="m276.34 144.61-38.48-22.91 107.91-43.74-38.36-22.84 31.45-12.75 115.39 68.7-31.45 12.75-38.55-22.95-107.91 43.74zm-29.51-22.22 29.85 17.77 107.91-43.74 38.55 22.95 22.14-8.98-106.76-63.56-22.14 8.98 38.36 22.84-107.91 43.74z" class="st0"/><path d="m471.72 123.81 34.16 20.34-51.24 20.77 46.76 27.84 51.24-20.77 33.78 20.11-134.7 54.6-33.78-20.11 55.4-22.46-46.76-27.84-55.4 22.46-34.16-20.34 134.7-54.6z"/><path d="m451.55 248.93-38.09-22.68 55.4-22.46-42.45-25.27-55.4 22.46-38.48-22.91 139.35-56.49 38.48 22.91-51.24 20.77 42.45 25.27 51.24-20.77 38.09 22.68-139.35 56.49zm-29.13-22 29.47 17.55 130.05-52.72-29.47-17.55-51.24 20.77-51.07-30.41 51.24-20.77-29.85-17.77-130.05 52.72 29.85 17.77 55.4-22.46 51.07 30.41-55.4 22.46z" class="st0"/><path d="m619.44 211.76 90.08 53.64-26.8 10.86-55.92-33.29-24.99 10.13 47.52 28.29-27.16 11.01-47.52-28.29-28.61 11.6 58.02 34.54-27.16 11.01-92.18-54.88 134.72-54.62z"/><path d="m576.75 323.47-96.5-57.45 139.35-56.49 94.4 56.2-31.45 12.75-55.92-33.29-20.33 8.24 47.52 28.29-31.81 12.89-47.52-28.29-23.95 9.71 58.02 34.54-31.81 12.9zm-87.53-56.77 87.87 52.32 22.51-9.12-58.02-34.54 33.26-13.48 47.52 28.29 22.5-9.12-47.52-28.29 29.64-12.01 55.92 33.29 22.14-8.98-85.77-51.07-130.05 52.71z" class="st0"/><path d="m739.68 283.35 36.83 21.93-35.6 36.97c-4.92 4.86-11.14 9.67-16.8 14.64l.96.57c11.19-1.67 21.99-3.76 32.45-5.32l79.88-10.6 37.03 22.04-134.7 54.6-31.11-18.52 46.17-18.71c13.4-5.43 36.17-11.99 51.1-16.32l-.76-.45-44.06 6.02-68.33 8.6-18.7-11.14 29.97-31.44 20.78-19.88-.76-.46c-11.5 6.38-28.92 16.12-42.32 21.55l-46.17 18.71L605 337.96l134.68-54.61z"/><path d="m739.55 420.4-35.42-21.09 49.9-20.23c7.77-3.15 18.74-6.69 29.44-9.95l-22.14 3.02-69.04 8.69-21.45-12.77 31.7-33.25 11.91-11.4c-10.17 5.55-22.21 11.87-32.02 15.84l-47.09 19.09-34.85-20.75 139.35-56.49 39.85 23.73-37.34 38.78c-3.27 3.23-7.1 6.44-10.8 9.55-.6.5-1.21 1.01-1.82 1.53 4-.64 7.96-1.32 11.82-1.98 5.41-.93 10.52-1.8 15.67-2.57l80.6-10.7 41.08 24.46-139.35 56.49zm-26.46-20.41 26.8 15.95 130.05-52.72-32.97-19.63-79.19 10.51c-5.07.76-10.16 1.63-15.55 2.55-5.47.94-11.14 1.91-16.86 2.76l-.71.11-3.93-2.34 2.07-1.81c2.02-1.78 4.14-3.55 6.19-5.27 3.81-3.2 7.41-6.21 10.53-9.29l33.81-35.12-33.82-20.13-130.05 52.72 26.22 15.61 45.25-18.34c12.88-5.22 29.82-14.63 41.04-20.85l2.07-1.15 4.01 2.39-22.67 21.7-28.17 29.56 15.96 9.5 67.65-8.51 44.73-6.11 5.32 3.17-5.89 1.71c-14.56 4.23-36.57 10.61-49.44 15.83l-42.45 17.2z" class="st0"/><path d="m907.06 383.01 90.08 53.63-26.8 10.86-55.92-33.29-24.99 10.13 47.52 28.29-27.16 11.01-47.52-28.29-28.61 11.59 58.02 34.54-27.16 11.01-92.18-54.89 134.72-54.59z"/><path d="m864.37 494.72-96.5-57.45 139.35-56.49 94.4 56.2-31.45 12.75-55.92-33.29-20.33 8.24 47.52 28.29-31.81 12.89-47.52-28.29-23.95 9.71 58.02 34.54-31.81 12.9zm-87.53-56.77 87.87 52.32 22.5-9.12-58.01-34.55 33.26-13.48 47.52 28.29 22.51-9.12L884.96 424l29.64-12.01 55.92 33.29 22.14-8.98-85.77-51.07-130.05 52.72z" class="st0"/></g></switch></svg>